<svg xmlns="http://www.w3.org/2000/svg" width="46.863" height="53.174" viewBox="0 0 46.863 53.174">
  <g id="Group_11775" data-name="Group 11775" transform="translate(-232 -574)">
    <line id="Line_532" data-name="Line 532" x2="46.863" transform="translate(232 626.799)" fill="none" stroke="#383e43" stroke-miterlimit="10" stroke-width="0.692"/>
    <path id="Path_30639" data-name="Path 30639" d="M35.59,93.956H21.56V65.649a1.9,1.9,0,0,1,1.9-1.9H33.688a1.9,1.9,0,0,1,1.9,1.9Z" transform="translate(218.08 532.844)" fill="none" stroke="#383e43" stroke-miterlimit="10" stroke-width="0.75"/>
    <path id="Path_30640" data-name="Path 30640" d="M90.111,52.8H76.081V1.9a1.9,1.9,0,0,1,1.9-1.9H88.209a1.9,1.9,0,0,1,1.9,1.9Z" transform="translate(182.879 574)" fill="#383e43"/>
    <line id="Line_533" data-name="Line 533" y2="23.426" transform="translate(243.383 600.399)" fill="none" stroke="#383e43" stroke-miterlimit="10" stroke-width="0.75"/>
    <line id="Line_534" data-name="Line 534" y2="23.426" transform="translate(246.394 600.399)" fill="none" stroke="#383e43" stroke-miterlimit="10" stroke-width="0.75"/>
    <line id="Line_535" data-name="Line 535" y2="23.426" transform="translate(249.403 600.399)" fill="none" stroke="#383e43" stroke-miterlimit="10" stroke-width="0.75"/>
    <line id="Line_536" data-name="Line 536" y2="45.79" transform="translate(262.966 578.035)" fill="none" stroke="#dae9e8" stroke-miterlimit="10" stroke-width="0.75"/>
    <line id="Line_537" data-name="Line 537" y2="45.79" transform="translate(265.976 578.035)" fill="none" stroke="#dae9e8" stroke-miterlimit="10" stroke-width="0.75"/>
    <line id="Line_538" data-name="Line 538" y2="45.79" transform="translate(268.985 578.035)" fill="none" stroke="#dae9e8" stroke-miterlimit="10" stroke-width="0.75"/>
  </g>
</svg>
