<svg xmlns="http://www.w3.org/2000/svg" xmlns:xlink="http://www.w3.org/1999/xlink" width="57.653" height="38.371" viewBox="0 0 57.653 38.371">
  <defs>
    <clipPath id="clip-path">
      <rect id="Rectangle_6517" data-name="Rectangle 6517" width="57.653" height="38.371" fill="none"/>
    </clipPath>
  </defs>
  <g id="Group_11778" data-name="Group 11778" transform="translate(0 0)">
    <g id="Group_11777" data-name="Group 11777" transform="translate(0 0)" clip-path="url(#clip-path)">
      <path id="Path_30642" data-name="Path 30642" d="M14.939,28.522a4,4,0,1,0-3.991-4,4.2,4.2,0,0,0,3.991,4" transform="translate(-4.154 -7.786)" fill="none" stroke="#fff" stroke-miterlimit="10" stroke-width="0.75"/>
      <path id="Path_30643" data-name="Path 30643" d="M14.939,28.522a4,4,0,1,0-3.991-4,4.2,4.2,0,0,0,3.991,4" transform="translate(-4.154 -7.786)" fill="#383e43"/>
      <path id="Path_30644" data-name="Path 30644" d="M19.572,42.486c-1.157-3.263-2.182-6.247-2.186-6.255a4.071,4.071,0,0,0-3.5-2.851c-1.981,0-4.018-.137-5.993.016a4.194,4.194,0,0,0-3.636,3.073L.487,47.988A2.144,2.144,0,0,0,1.3,50.457a2.068,2.068,0,0,0,3.07-1.092l1.711-5.226c0,2.176.15,4.412,0,6.582h9.678c-.241-2.77-.025-5.442-.19-6.578a.017.017,0,0,1,.032-.007L17.6,49.17" transform="translate(-0.142 -12.644)" fill="none" stroke="#383e43" stroke-miterlimit="10" stroke-width="0.75"/>
      <path id="Path_30645" data-name="Path 30645" d="M44.014,28.522a4,4,0,1,1,3.991-4,4.2,4.2,0,0,1-3.991,4" transform="translate(-15.187 -7.786)" fill="#383e43"/>
      <path id="Path_30646" data-name="Path 30646" d="M61.6,42.486c1.157-3.263,2.183-6.247,2.185-6.255a4.073,4.073,0,0,1,3.5-2.851c1.983,0,4.017-.137,5.994.016a4.191,4.191,0,0,1,3.635,3.073l3.772,11.519a2.143,2.143,0,0,1-.813,2.469A2.068,2.068,0,0,1,76.8,49.364l-1.71-5.226c0,2.176-.15,4.412,0,6.582H65.414c.241-2.77.024-5.442.189-6.578a.017.017,0,0,0-.032-.007L63.565,49.17" transform="translate(-23.372 -12.644)" fill="none" stroke="#383e43" stroke-miterlimit="10" stroke-width="0.75"/>
      <path id="Path_30647" data-name="Path 30647" d="M74.282,28.522a4,4,0,1,0-3.991-4,4.2,4.2,0,0,0,3.991,4" transform="translate(-26.672 -7.786)" fill="none" stroke="#fff" stroke-miterlimit="10" stroke-width="0.75"/>
      <path id="Path_30648" data-name="Path 30648" d="M74.282,28.522a4,4,0,1,0-3.991-4,4.2,4.2,0,0,0,3.991,4" transform="translate(-26.672 -7.786)" fill="#383e43"/>
      <path id="Path_30649" data-name="Path 30649" d="M44.745,50.718c-.241-2.77-.025-5.442-.189-6.578a.016.016,0,0,1,.032-.007l2.006,5.036a2.058,2.058,0,0,0,2.818,1.176A2.125,2.125,0,0,0,50.445,47.7L46.377,36.23a4.071,4.071,0,0,0-3.5-2.851c-1.981,0-4.017-.137-5.993.016a4.193,4.193,0,0,0-3.636,3.073l-3.772,11.52a2.143,2.143,0,0,0,.813,2.468,2.068,2.068,0,0,0,3.071-1.092l1.711-5.226c0,2.176.15,4.412,0,6.582Z" transform="translate(-11.143 -12.644)" fill="none" stroke="#383e43" stroke-miterlimit="10" stroke-width="0.75"/>
      <path id="Path_30650" data-name="Path 30650" d="M29.606,8A4,4,0,1,1,33.6,4a4.2,4.2,0,0,1-3.991,4" transform="translate(-9.72 0.001)" fill="#383e43"/>
      <path id="Path_30651" data-name="Path 30651" d="M35.038,20.073c-.83-2.341-1.546-4.357-1.548-4.363a4.071,4.071,0,0,0-3.5-2.851c-1.981,0-4.017-.138-5.993.015a4.191,4.191,0,0,0-3.635,3.074l-1.4,4.267" transform="translate(-7.197 -4.857)" fill="none" stroke="#383e43" stroke-miterlimit="10" stroke-width="0.75"/>
      <path id="Path_30652" data-name="Path 30652" d="M59.277,8a4,4,0,1,1,3.991-4,4.2,4.2,0,0,1-3.991,4" transform="translate(-20.978 0.001)" fill="#383e43"/>
      <path id="Path_30653" data-name="Path 30653" d="M64.711,20.073c-.83-2.341-1.546-4.357-1.548-4.363a4.07,4.07,0,0,0-3.5-2.851c-1.982,0-4.017-.138-5.994.015a4.191,4.191,0,0,0-3.635,3.074l-1.4,4.267" transform="translate(-18.456 -4.857)" fill="none" stroke="#383e43" stroke-miterlimit="10" stroke-width="0.75"/>
    </g>
  </g>
</svg>
