<svg id="x" xmlns="http://www.w3.org/2000/svg" xmlns:xlink="http://www.w3.org/1999/xlink" viewBox="0 0 25 50"><defs><style>.cls-1{fill:none;}.cls-2{clip-path:url(#clip-path);}.cls-3{fill:#fff;}.cls-4{fill:#00539d;}</style><clipPath id="clip-path"><rect class="cls-1" x="0.43" width="24.14" height="50"/></clipPath></defs><g id="Group_12094" data-name="Group 12094"><g class="cls-2"><g id="Group_12093" data-name="Group 12093"><path id="Path_30755" data-name="Path 30755" class="cls-3" d="M20.47,8.66H4.38A2.66,2.66,0,0,1,1.72,6V2.66A2.65,2.65,0,0,1,4.38,0H20.47a2.66,2.66,0,0,1,2.66,2.66V6a2.66,2.66,0,0,1-2.66,2.66"/><path id="Path_30756" data-name="Path 30756" class="cls-3" d="M20.29,10.65v-2H18.46v1.64H6.54V8.67H4.71v2C4.71,12,.43,13,.43,15.6V45.46A4.54,4.54,0,0,0,5,50H20a4.54,4.54,0,0,0,4.54-4.54V15.6c0-2.6-4.28-3.6-4.28-4.95"/><rect id="Rectangle_6653" data-name="Rectangle 6653" class="cls-4" x="0.43" y="18.7" width="24.14" height="2.42"/><rect id="Rectangle_6654" data-name="Rectangle 6654" class="cls-4" x="0.43" y="37.66" width="24.14" height="5.94"/><rect id="Rectangle_6655" data-name="Rectangle 6655" x="3.2" y="27.83" width="18.59" height="5.94"/></g></g></g></svg>