<svg id="x" xmlns="http://www.w3.org/2000/svg" viewBox="0 0 43 50"><g id="_04-peopleculture-legend-male" data-name=" 04-peopleculture-legend-male"><path id="Path_30746" data-name="Path 30746" d="M42.44,3.76,38.18,16.23l2.36.79-.28,1.41-2.48-.26s-1,7.4-3.71,8.63-9.52,4-9.52,4-.09,1.34-.78,1.45L.52,25.34S.25,24,1.18,23.9c0,0,11.11-2.56,12.08-3.16s2.52-2.36,2.7-5.59a16.91,16.91,0,0,1,.78-3.45A93.22,93.22,0,0,1,20.81.8,1.42,1.42,0,0,1,22.24,0l19,1.92a1.41,1.41,0,0,1,1,.63,1.38,1.38,0,0,1,.15,1.2Z"/><path id="Path_30747" data-name="Path 30747" d="M14.65,12,5.58,14.14s-1.38.45-1.48,2.64c0,0-.85,6.18.83,6.5l1.75-.43s-.94-.21-1.11-1a45.78,45.78,0,0,1,.08-5.24,2.33,2.33,0,0,1,1.6-2c1.2-.39,6.19-1.44,6.73-1.58s1.89.94,1.89.94l.53-2S16.1,11.65,14.65,12Z"/><path id="Path_30748" data-name="Path 30748" d="M19.94,29.68l.11,1.15a.93.93,0,0,0-.87.78l-.06,2.8S11.34,32,10.06,32.13a2,2,0,0,0-1.79,1.56s-.56,1.86.7,2a1.78,1.78,0,0,0,1,.26s1.13,0,.81-2.19c0,0,1.89,0,6.15,2.28,0,0-7.54,3.31-8.64,4s-2.66,2.24-2.05,4a1.41,1.41,0,0,0,1,1,1.46,1.46,0,0,0,1.42-.43c.14-.38,0-2.27.46-2.77s2.73-2.57,9.06-3.61a4.91,4.91,0,0,0,2.56.92s2,4,2.05,5.28a27.5,27.5,0,0,1,.08,4.16c-.09.89.49,1.45,1.5,1.41s1.85-.58,1.46-2.5-3.38-9.6-3.38-9.6,11.34,0,11.77,2.7c0,0-.34,2,1,2.1s1.45.32,1.72-.17a2.8,2.8,0,0,0-1.18-3.78l0,0c-2.19-1.38-11.28-2.86-12.19-3.11S22.11,35,23,34.12a7.79,7.79,0,0,1,1.2-1.1s-.33,1.35.49,1.4,1.35.57,1.7.29,1.14-1.73.05-2.24c0,0-.24-1.48-1.57-1.29L21.76,33.1a6.09,6.09,0,0,0,.15-1.7,1.14,1.14,0,0,0-.53-.53l-.07-1Z"/></g></svg>