<svg id="x" xmlns="http://www.w3.org/2000/svg" viewBox="0 0 43 50"><defs><style>.cls-1{fill:#00b440;}</style></defs><g id="_04-peopleculture-legend-female" data-name=" 04-peopleculture-legend-female"><path id="Path_30743" data-name="Path 30743" class="cls-1" d="M42.45,3.75,38.2,16.22l2.35.8-.27,1.4-2.51-.26s-1,7.4-3.72,8.64-9.52,4-9.52,4-.1,1.34-.79,1.46L.52,25.34S.24,24,1.17,23.89c0,0,11.11-2.55,12.1-3.15s2.51-2.36,2.71-5.6a17.56,17.56,0,0,1,.76-3.45A97.54,97.54,0,0,1,20.81.8,1.41,1.41,0,0,1,22.23,0l19,1.92a1.43,1.43,0,0,1,1,.62A1.38,1.38,0,0,1,42.45,3.75Z"/><path id="Path_30744" data-name="Path 30744" class="cls-1" d="M14.64,12l-9.06,2.1s-1.38.46-1.44,2.62c0,0-.86,6.18.83,6.51l1.75-.44s-.94-.21-1.11-1a43.8,43.8,0,0,1,.07-5.25,2.31,2.31,0,0,1,1.6-2c1.2-.4,6.2-1.44,6.74-1.59s1.88,1,1.88,1l.53-2S16.08,11.65,14.64,12Z"/><path id="Path_30745" data-name="Path 30745" class="cls-1" d="M19.94,29.68l.13,1.16a.94.94,0,0,0-.89.77l0,2.81s-7.78-2.37-9.06-2.28a2,2,0,0,0-1.82,1.54S7.7,35.53,9,35.62a1.61,1.61,0,0,0,1,.27s1.13,0,.82-2.19c0,0,1.88,0,6.16,2.28,0,0-7.55,3.3-8.65,4s-2.66,2.25-2,4A1.4,1.4,0,0,0,7.3,45a1.44,1.44,0,0,0,1.43-.44c.15-.38,0-2.27.47-2.77s2.72-2.56,9.06-3.6a4.84,4.84,0,0,0,2.56.91,31.07,31.07,0,0,1,2.06,5.28A27.5,27.5,0,0,1,23,48.58c-.09.9.5,1.45,1.5,1.42s1.86-.58,1.48-2.5S22.38,38,22.38,38s11.34,0,11.77,2.69c0,0-.33,2,1,2.11s1.44.32,1.71-.17a2.79,2.79,0,0,0-1.14-3.77l-.06,0C33.44,37.42,24.34,36,23.43,35.7s-1.45-.63-.6-1.5A7.43,7.43,0,0,1,24,33.1s-.34,1.35.48,1.39,1.36.57,1.7.3,1.14-1.74.05-2.25c0,0-.24-1.47-1.58-1.28l-3.07,1.92a6.09,6.09,0,0,0,.15-1.7,1,1,0,0,0-.53-.53l-.08-1Z"/></g></svg>