<svg id="Layer_1" data-name="Layer 1" xmlns="http://www.w3.org/2000/svg" xmlns:xlink="http://www.w3.org/1999/xlink" viewBox="0 0 120 120"><defs><style>.cls-1{fill:#fff;}.cls-2{opacity:0.7;}.cls-3{fill:url(#linear-gradient);}.cls-4{isolation:isolate;}.cls-5{fill:#00b14f;}.cls-6{fill:#00b04f;}</style><linearGradient id="linear-gradient" x1="3.16" y1="117.54" x2="4.16" y2="117.54" gradientTransform="matrix(113.57, 0, 0, -113.57, -355.22, 13409.16)" gradientUnits="userSpaceOnUse"><stop offset="0" stop-color="#fff"/><stop offset="0.13" stop-color="#fafafa"/><stop offset="0.28" stop-color="#ececec"/><stop offset="0.44" stop-color="#d4d4d4"/><stop offset="0.61" stop-color="#b3b3b3"/><stop offset="0.79" stop-color="#888"/><stop offset="0.97" stop-color="#555"/><stop offset="1" stop-color="#4b4b4b"/></linearGradient></defs><path id="Path_29649" data-name="Path 29649" class="cls-1" d="M84.27,48.26a3.57,3.57,0,1,1,1,2.53A3.56,3.56,0,0,1,84.27,48.26Zm11.48-3.37h3.1l-9.48,14.8h-3.1Zm-6.64,3.37a1.27,1.27,0,1,0-1.18,1.35,1.41,1.41,0,0,0,.57-.18,1.29,1.29,0,0,0,.61-1.17Zm4.56,8.14a3.55,3.55,0,1,1,1,2.55A3.58,3.58,0,0,1,93.67,56.4Zm4.81,0A1.26,1.26,0,1,0,96,56.15v.25a1.26,1.26,0,0,0,1.16,1.35,1.25,1.25,0,0,0,1.35-1.15A.67.67,0,0,0,98.48,56.4Z"/><g id="Group_10171" data-name="Group 10171" class="cls-2"><path id="Path_29644" data-name="Path 29644" class="cls-3" d="M60,9.32A50.67,50.67,0,1,1,9.34,60h0A50.67,50.67,0,0,1,60,9.32m0-6.1A56.79,56.79,0,1,0,116.79,60h0A56.8,56.8,0,0,0,60,3.21Z"/></g><g id="_90" data-name=" 90" class="cls-4"><g class="cls-4"><path class="cls-5" d="M48.56,57c0,5.76-3.21,12.34-11.42,22.95H29.07l-.14-.2c3.41-4.32,6.14-8,8.5-11.52a8.26,8.26,0,0,1-3.56.72c-5.8,0-10.8-4.46-10.8-11.56S27.73,44.7,35.84,44.7C43.09,44.7,48.56,49.6,48.56,57Zm-6.91-.19a5.48,5.48,0,0,0-5.76-5.71,5.69,5.69,0,0,0-6,5.9c0,3.55,2.45,5.67,6,5.67A5.51,5.51,0,0,0,41.65,56.85Z"/><path class="cls-5" d="M52.59,63.23c0-11.9,5.19-18.53,14.5-18.53,8.79,0,14.26,6.68,14.26,17.48C81.35,74,76.21,80.71,67,80.71,58,80.71,52.59,74.13,52.59,63.23Zm21.51-.72c0-7.15-2.45-10.94-7-10.94-4.75,0-7.25,3.93-7.25,11.28,0,7.06,2.55,11,7.15,11S74.1,69.81,74.1,62.51Z"/></g></g><path class="cls-6" d="M60,3.21h-.65V9.34l.65,0A50.67,50.67,0,1,1,9.34,60h0A50.67,50.67,0,0,1,39.49,13.66L36.92,8.12A56.79,56.79,0,1,0,116.79,60h0A56.8,56.8,0,0,0,60,3.21Z"/></svg>