<svg id="a" xmlns="http://www.w3.org/2000/svg" xmlns:xlink="http://www.w3.org/1999/xlink" viewBox="0 0 114 120"><defs><style>.cls-1{fill:#fff;}.cls-2{opacity:0.7;}.cls-3{fill:url(#linear-gradient);}.cls-4{fill:#00b04f;}.cls-5{isolation:isolate;}.cls-6{fill:#00b14f;}</style><linearGradient id="linear-gradient" x1="-129.68" y1="117.54" x2="-128.68" y2="117.54" gradientTransform="matrix(113.57, 0, 0, -113.57, 14728.43, 13409.16)" gradientUnits="userSpaceOnUse"><stop offset="0" stop-color="#fff"/><stop offset="0.13" stop-color="#fafafa"/><stop offset="0.28" stop-color="#ececec"/><stop offset="0.44" stop-color="#d4d4d4"/><stop offset="0.61" stop-color="#b3b3b3"/><stop offset="0.79" stop-color="#888"/><stop offset="0.97" stop-color="#555"/><stop offset="1" stop-color="#4b4b4b"/></linearGradient></defs><path id="Path_29649" data-name="Path 29649" class="cls-1" d="M81.27,48.24a3.57,3.57,0,1,1,1,2.54A3.61,3.61,0,0,1,81.27,48.24Zm11.48-3.36h3.1l-9.48,14.8h-3.1Zm-6.64,3.36a1.27,1.27,0,1,0-2.53.18,1.26,1.26,0,0,0,1.35,1.17,1.16,1.16,0,0,0,.57-.18,1.27,1.27,0,0,0,.61-1.17Zm4.56,8.15a3.53,3.53,0,1,1,1,2.55A3.58,3.58,0,0,1,90.67,56.39Zm4.81,0A1.26,1.26,0,1,0,93,56.14v.25a1.27,1.27,0,0,0,1.16,1.35,1.25,1.25,0,0,0,1.35-1.15A.67.67,0,0,0,95.48,56.39Z"/><g id="Group_10171" data-name="Group 10171" class="cls-2"><path id="Path_29644" data-name="Path 29644" class="cls-3" d="M57,9.31A50.67,50.67,0,1,1,6.34,60h0A50.67,50.67,0,0,1,57,9.31M57,3.2A56.79,56.79,0,1,0,113.79,60v0A56.79,56.79,0,0,0,57,3.2Z"/></g><path class="cls-4" d="M57,3.23V9.51A50.5,50.5,0,1,1,6.52,60v0A50.51,50.51,0,0,1,38.89,12.87l-2.8-5.65A57,57,0,0,0,4.8,37.63L3.33,41.45A56.79,56.79,0,1,0,113.79,60h0A56.78,56.78,0,0,0,57,3.23Z"/><g class="cls-5"><path class="cls-6" d="M33.93,44.32a15.16,15.16,0,0,1,5.19.91,12,12,0,0,1,4.47,2.88,13.84,13.84,0,0,1,3.12,5.24,24.68,24.68,0,0,1,1.16,8,29.13,29.13,0,0,1-1,7.94A17.74,17.74,0,0,1,44,75.21a12.35,12.35,0,0,1-4.48,3.71,13.39,13.39,0,0,1-5.86,1.27,13.38,13.38,0,0,1-6.17-1.36,11.33,11.33,0,0,1-4.31-3.7,11.49,11.49,0,0,1-2-5.27h7.28a4.93,4.93,0,0,0,1.79,3,5.42,5.42,0,0,0,3.38,1,5.68,5.68,0,0,0,5.18-3,16,16,0,0,0,1.79-8.16h-.24a8.22,8.22,0,0,1-2.12,2.64,9.6,9.6,0,0,1-3,1.69,10.9,10.9,0,0,1-3.64.6,10.46,10.46,0,0,1-5.5-1.45,10.33,10.33,0,0,1-3.82-4,12.79,12.79,0,0,1,.22-12,11.45,11.45,0,0,1,4.58-4.3A14.26,14.26,0,0,1,33.93,44.32Zm0,5.8a5.7,5.7,0,0,0-3.06.82,5.94,5.94,0,0,0-2.11,2.2,6,6,0,0,0-.76,3.08,6.27,6.27,0,0,0,.76,3.1,5.81,5.81,0,0,0,2.08,2.18,5.66,5.66,0,0,0,3,.81,5.77,5.77,0,0,0,2.37-.48,5.9,5.9,0,0,0,1.9-1.32,6.19,6.19,0,0,0,1.73-4.31,6.27,6.27,0,0,0-.78-3A6.07,6.07,0,0,0,37,51,5.71,5.71,0,0,0,34,50.12Z"/><path class="cls-6" d="M66.68,80.48a13.2,13.2,0,0,1-7.56-2.17,13.53,13.53,0,0,1-4.86-6.22,25.27,25.27,0,0,1-1.68-9.8,25,25,0,0,1,1.69-9.73,12.68,12.68,0,0,1,12.41-8.24,12.7,12.7,0,0,1,12.4,8.25,24.56,24.56,0,0,1,1.69,9.72,25.55,25.55,0,0,1-1.69,9.82,13.63,13.63,0,0,1-4.85,6.22A13.12,13.12,0,0,1,66.68,80.48Zm0-6.12a5.41,5.41,0,0,0,4.79-3q1.78-3,1.77-9.05a22.87,22.87,0,0,0-.81-6.61,8.62,8.62,0,0,0-2.29-4,5,5,0,0,0-3.46-1.32,5.4,5.4,0,0,0-4.78,3c-1.19,2-1.79,5-1.8,8.93A23.62,23.62,0,0,0,60.91,69a8.53,8.53,0,0,0,2.29,4A5,5,0,0,0,66.68,74.36Z"/></g></svg>