<?xml version="1.0" encoding="utf-8"?>
<!-- Generator: Adobe Illustrator 26.0.3, SVG Export Plug-In . SVG Version: 6.00 Build 0)  -->
<svg version="1.1" id="Layer_1" xmlns="http://www.w3.org/2000/svg" xmlns:xlink="http://www.w3.org/1999/xlink" x="0px" y="0px"
	 viewBox="0 0 95.3 92" style="enable-background:new 0 0 95.3 92;" xml:space="preserve">
<style type="text/css">
	.st0{fill:#FFFFFF;}
</style>
<g>
	<path class="st0" d="M78.7,0.1L62.4,19.5h9.4v70.8c0,0.9,0.7,1.6,1.6,1.6h10.8c0,0,0,0,0,0c0.4,0,0.8-0.2,1.1-0.5
		c0.3-0.3,0.5-0.7,0.5-1.1V19.5h9.4L78.7,0.1z M85,18.8v71.6c0,0.2-0.1,0.4-0.2,0.6c-0.2,0.2-0.4,0.2-0.6,0.2c0,0,0,0,0,0H73.3
		c-0.5,0-0.8-0.4-0.8-0.8V18.8H64L78.7,1.3l14.8,17.5H85z"/>
	<path class="st0" d="M16.5,27L0.2,46.4h9.4v43.9c0,0.9,0.7,1.6,1.6,1.6h10.8c0,0,0,0,0,0c0.4,0,0.8-0.2,1.1-0.5
		c0.3-0.3,0.5-0.7,0.5-1.1V46.4h9.4L16.5,27z M22.8,45.6v44.7c0,0.2-0.1,0.4-0.2,0.6c-0.2,0.2-0.4,0.2-0.6,0.2c0,0,0,0,0,0H11.1
		c-0.5,0-0.8-0.4-0.8-0.8V45.6H1.8l14.8-17.5l14.8,17.5H22.8z"/>
	<polygon class="st0" points="40.6,41.4 41.4,41.4 41.4,29.7 32.9,29.7 47.6,12.2 62.4,29.7 53.9,29.7 53.9,40.1 54.6,40.1 
		54.6,30.5 64,30.5 47.6,11.1 31.3,30.5 40.6,30.5 	"/>
	<path class="st0" d="M53.9,90.3c0,0.2-0.1,0.4-0.2,0.6c-0.2,0.2-0.4,0.2-0.6,0.2c0,0,0,0,0,0H42.2c-0.5,0-0.8-0.4-0.8-0.8V80h-0.8
		v10.3c0,0.9,0.7,1.6,1.6,1.6H53c0,0,0,0,0,0c0.4,0,0.8-0.2,1.1-0.5c0.3-0.3,0.5-0.7,0.5-1.1v-9h-0.8V90.3z"/>
	<path class="st0" d="M48.6,42.3c-10.4,0-18.8,8.4-18.8,18.8c0,10.4,8.4,18.8,18.8,18.8c8.7,0,16.3-6,18.3-14.4
		c0.3-1.4,0.5-2.9,0.5-4.4C67.4,50.7,59,42.3,48.6,42.3z M41.1,66.4h-6.6v-1.9c3.5-3.1,4.4-4,4.4-5c0-0.9-0.7-1.5-1.7-1.5
		c-0.7,0-1.6,0.4-2.5,1l-0.1-0.1v-1.9c1-0.6,1.9-0.9,2.9-0.9c2.1,0,3.5,1.2,3.5,3c0,1.8-1.1,3.1-3.9,5.5h3.9V66.4z M50.6,64.5h-1.5
		v1.9h-1.9v-1.9h-5v-1.8l4.9-6.4h2v6.4h1.5V64.5z M51.5,58.6c0-1.4,1.1-2.4,2.4-2.4c1.4,0,2.4,1,2.4,2.4S55.3,61,53.9,61
		C52.5,61,51.5,59.9,51.5,58.6z M52.8,66.4l6.5-10.1h2.1l-6.5,10.1H52.8z M62.7,64.1c0,1.4-1.1,2.5-2.4,2.5s-2.4-1.1-2.4-2.5
		c0-1.4,1.1-2.4,2.4-2.4C61.6,61.7,62.7,62.7,62.7,64.1z"/>
	<path class="st0" d="M54.8,58.6c0-0.6-0.3-0.9-0.9-0.9c-0.5,0-0.9,0.3-0.9,0.9c0,0.6,0.3,0.9,0.9,0.9
		C54.4,59.5,54.8,59.1,54.8,58.6z"/>
	<polygon class="st0" points="47.2,62.7 47.2,59 44.4,62.7 	"/>
	<polygon class="st0" points="48.6,42.3 48.6,42.3 48.6,42.3 	"/>
	<path class="st0" d="M59.4,64.1c0,0.6,0.3,0.9,0.9,0.9c0.5,0,0.8-0.3,0.8-0.9c0-0.6-0.3-0.9-0.8-0.9C59.8,63.2,59.4,63.6,59.4,64.1
		z"/>
</g>
</svg>
