<svg xmlns="http://www.w3.org/2000/svg" xmlns:xlink="http://www.w3.org/1999/xlink" width="89.35" height="49.682" viewBox="0 0 89.35 49.682">
  <defs>
    <clipPath id="clip-path">
      <rect id="Rectangle_6559" data-name="Rectangle 6559" width="89.35" height="49.682" fill="none"/>
    </clipPath>
  </defs>
  <g id="Group_11808" data-name="Group 11808" transform="translate(0 0)">
    <g id="Group_11807" data-name="Group 11807" transform="translate(0 0)" clip-path="url(#clip-path)">
      <path id="Rectangle_6556" data-name="Rectangle 6556" d="M1.773,0H72.452a1.772,1.772,0,0,1,1.772,1.772v2.7a1.772,1.772,0,0,1-1.772,1.772H1.772A1.772,1.772,0,0,1,0,4.475v-2.7A1.773,1.773,0,0,1,1.773,0Z" transform="translate(0.298 0)" fill="#fff"/>
      <rect id="Rectangle_6557" data-name="Rectangle 6557" width="74.523" height="4.165" rx="0.886" transform="translate(0 45.517)" fill="#fff"/>
      <path id="Rectangle_6558" data-name="Rectangle 6558" d="M.886,0h7.3a.885.885,0,0,1,.885.885V13.1a.887.887,0,0,1-.887.887H.886A.886.886,0,0,1,0,13.1V.886A.886.886,0,0,1,.886,0Z" transform="translate(58.905 19.635)" fill="#fff"/>
      <line id="Line_540" data-name="Line 540" y2="39.269" transform="translate(6.544 6.248)" fill="none" stroke="#fff" stroke-miterlimit="10" stroke-width="0.75"/>
      <line id="Line_541" data-name="Line 541" y2="39.269" transform="translate(11.156 6.248)" fill="none" stroke="#fff" stroke-miterlimit="10" stroke-width="0.75"/>
      <line id="Line_542" data-name="Line 542" y2="39.269" transform="translate(33.171 6.248)" fill="none" stroke="#fff" stroke-miterlimit="10" stroke-width="0.75"/>
      <line id="Line_543" data-name="Line 543" y2="39.269" transform="translate(55.631 6.248)" fill="none" stroke="#fff" stroke-miterlimit="10" stroke-width="0.75"/>
      <line id="Line_544" data-name="Line 544" y2="39.269" transform="translate(70.505 6.248)" fill="none" stroke="#fff" stroke-miterlimit="10" stroke-width="0.75"/>
      <path id="Path_30689" data-name="Path 30689" d="M95.1,34.617c-8.569,4.54-12.976,8.075-14.067,18.464" transform="translate(-10.48 -4.477)" fill="none" stroke="#fff" stroke-miterlimit="10" stroke-width="0.75"/>
      <path id="Path_30690" data-name="Path 30690" d="M92.548,41.179s-5.645-.614-4-5.585" transform="translate(-11.412 -4.604)" fill="none" stroke="#fff" stroke-miterlimit="10" stroke-width="0.75"/>
      <path id="Path_30691" data-name="Path 30691" d="M97.055,41.152a10.812,10.812,0,0,1-2.814,3.429A8.078,8.078,0,0,1,83.088,43.27l.1.114s-.05-.052-.126-.147-.134-.159-.134-.159l.1.118a8.807,8.807,0,0,1-1.971-6.507c.449-2.147,2.048-5.715,7.64-7.216a35.887,35.887,0,0,1,10.787-.161A33.21,33.21,0,0,1,97.055,41.152Z" transform="translate(-10.472 -3.75)" fill="none" stroke="#fff" stroke-miterlimit="10" stroke-width="0.75"/>
    </g>
  </g>
</svg>
