<svg xmlns="http://www.w3.org/2000/svg" xmlns:xlink="http://www.w3.org/1999/xlink" width="70.591" height="67.876" viewBox="0 0 70.591 67.876">
  <defs>
    <clipPath id="clip-path">
      <rect id="Rectangle_6480" data-name="Rectangle 6480" width="70.592" height="67.876" fill="none"/>
    </clipPath>
  </defs>
  <g id="Group_11602" data-name="Group 11602" transform="translate(0 0)">
    <g id="Group_11599" data-name="Group 11599" transform="translate(0 0)">
      <g id="Group_11598" data-name="Group 11598" clip-path="url(#clip-path)">
        <path id="Path_30566" data-name="Path 30566" d="M20.608,0V58.257" transform="translate(-1.895 0)" fill="none" stroke="#fff" stroke-miterlimit="10" stroke-width="0.75"/>
        <path id="Path_30567" data-name="Path 30567" d="M12.895,43.35H23.749v15.2L36.725,71.522H.856L12.95,58.416Z" transform="translate(-0.079 -3.987)" fill="none" stroke="#fff" stroke-miterlimit="10" stroke-width="0.75"/>
      </g>
    </g>
    <path id="Path_30568" data-name="Path 30568" d="M10.285,64.158H28.226" transform="translate(-0.946 -5.901)" fill="none" stroke="#fff" stroke-miterlimit="10" stroke-width="0.75"/>
    <g id="Group_11601" data-name="Group 11601" transform="translate(0 0)">
      <g id="Group_11600" data-name="Group 11600" clip-path="url(#clip-path)">
        <path id="Path_30569" data-name="Path 30569" d="M19.162,17.281S2.076,18.79,5.282,3.415c0,0,15.4-2.453,13.879,13.866" transform="translate(-0.449 -0.302)" fill="#fff"/>
        <path id="Path_30570" data-name="Path 30570" d="M20.713,17.281S37.8,18.79,34.592,3.415c0,0-15.4-2.453-13.878,13.866" transform="translate(-1.895 -0.302)" fill="#fff"/>
        <path id="Path_30571" data-name="Path 30571" d="M19.162,36.857S2.076,38.366,5.282,22.991c0,0,15.4-2.453,13.879,13.866" transform="translate(-0.449 -2.103)" fill="#fff"/>
        <path id="Path_30572" data-name="Path 30572" d="M20.713,36.857S37.8,38.366,34.592,22.991c0,0-15.4-2.453-13.878,13.866" transform="translate(-1.895 -2.103)" fill="#fff"/>
        <path id="Path_30573" data-name="Path 30573" d="M44.354,53.646a2.768,2.768,0,1,0-2.768,2.768A2.767,2.767,0,0,0,44.354,53.646Z" transform="translate(-3.57 -4.68)" fill="none" stroke="#fff" stroke-miterlimit="10" stroke-width="0.75"/>
        <path id="Path_30574" data-name="Path 30574" d="M54.453,41.517a2.768,2.768,0,1,0-2.768,2.768A2.767,2.767,0,0,0,54.453,41.517Z" transform="translate(-4.499 -3.564)" fill="none" stroke="#fff" stroke-miterlimit="10" stroke-width="0.75"/>
        <path id="Path_30575" data-name="Path 30575" d="M64.664,50.6A2.768,2.768,0,1,0,61.9,53.364,2.767,2.767,0,0,0,64.664,50.6Z" transform="translate(-5.438 -4.399)" fill="none" stroke="#fff" stroke-miterlimit="10" stroke-width="0.75"/>
        <path id="Path_30576" data-name="Path 30576" d="M76.806,38.955a2.768,2.768,0,1,0-2.768,2.768A2.767,2.767,0,0,0,76.806,38.955Z" transform="translate(-6.555 -3.328)" fill="none" stroke="#fff" stroke-miterlimit="10" stroke-width="0.75"/>
        <line id="Line_510" data-name="Line 510" y1="6.672" x2="5.741" transform="translate(39.756 40.142)" fill="none" stroke="#fff" stroke-miterlimit="10" stroke-width="0.75"/>
        <line id="Line_511" data-name="Line 511" x2="5.041" y2="4.702" transform="translate(49.423 39.579)" fill="none" stroke="#fff" stroke-miterlimit="10" stroke-width="0.75"/>
        <line id="Line_512" data-name="Line 512" y1="6.566" x2="7.217" transform="translate(58.452 37.715)" fill="none" stroke="#fff" stroke-miterlimit="10" stroke-width="0.75"/>
      </g>
    </g>
  </g>
</svg>
