<svg xmlns="http://www.w3.org/2000/svg" xmlns:xlink="http://www.w3.org/1999/xlink" width="79.493" height="57.439" viewBox="0 0 79.493 57.439">
  <defs>
    <clipPath id="clip-path">
      <rect id="Rectangle_6554" data-name="Rectangle 6554" width="79.493" height="57.439" fill="none"/>
    </clipPath>
  </defs>
  <g id="Group_11802" data-name="Group 11802" transform="translate(0 0)">
    <g id="Group_11803" data-name="Group 11803" transform="translate(0 0)" clip-path="url(#clip-path)">
      <path id="Path_30661" data-name="Path 30661" d="M14.859,52.113a8.98,8.98,0,1,1,8.982,8.98A8.982,8.982,0,0,1,14.859,52.113Z" transform="translate(-1.433 -4.158)" fill="none" stroke="#fff" stroke-miterlimit="10" stroke-width="1.118"/>
      <path id="Path_30662" data-name="Path 30662" d="M20.517,52.658a3.87,3.87,0,1,1,3.87,3.87,3.871,3.871,0,0,1-3.87-3.87" transform="translate(-1.978 -4.704)" fill="#fff"/>
      <path id="Path_30663" data-name="Path 30663" d="M66.548,52.113a8.98,8.98,0,1,1,8.98,8.98A8.981,8.981,0,0,1,66.548,52.113Z" transform="translate(-6.416 -4.158)" fill="none" stroke="#fff" stroke-miterlimit="10" stroke-width="1.118"/>
      <path id="Path_30664" data-name="Path 30664" d="M72.2,52.658a3.869,3.869,0,1,1,3.869,3.87,3.869,3.869,0,0,1-3.869-3.87" transform="translate(-6.962 -4.704)" fill="#fff"/>
      <path id="Rectangle_6552" data-name="Rectangle 6552" d="M3.355,0H21.906a3.355,3.355,0,0,1,3.355,3.355v16.7a3.355,3.355,0,0,1-3.355,3.355H3.356A3.356,3.356,0,0,1,0,20.054V3.355A3.355,3.355,0,0,1,3.355,0Z" transform="translate(0 6.14)" fill="#fff"/>
      <path id="Path_30665" data-name="Path 30665" d="M69.9,15.247a4.992,4.992,0,0,0,0,9.807s3.122.744,2.6-4.9C73.02,14.5,69.9,15.247,69.9,15.247Z" transform="translate(-6.348 -1.467)" fill="none" stroke="#fff" stroke-miterlimit="10" stroke-width="0.75"/>
      <path id="Path_30666" data-name="Path 30666" d="M72.673,35.48s-2.02-7.958-9.22-9.978l-2.421-5.787a1.944,1.944,0,0,0-1.932-2.3H50.02a1.966,1.966,0,1,0,0,3.931h8.707l-.075.117L65.465,41.9a11.322,11.322,0,0,1,17.7,1.424l.619-.267A10.935,10.935,0,0,0,72.673,35.48Z" transform="translate(-4.633 -1.679)" fill="none" stroke="#fff" stroke-linecap="round" stroke-linejoin="round" stroke-width="0.75"/>
      <path id="Path_30667" data-name="Path 30667" d="M58.562,53.78a10.616,10.616,0,0,1-.055-3.663H38.58a41,41,0,0,1-2.993-10.594,1.986,1.986,0,0,1-.425.048H10.5a1.87,1.87,0,0,1-.258-.026c-1.141,2.8-3.708,9.54-4,14.236h5.5a11.653,11.653,0,0,1-.187-2.015,11.451,11.451,0,1,1,22.9,0,11.308,11.308,0,0,1-.191,2.015Z" transform="translate(-0.602 -3.81)" fill="none" stroke="#fff" stroke-miterlimit="10" stroke-width="0.75"/>
      <path id="Rectangle_6553" data-name="Rectangle 6553" d="M2.2,0H26.434a2.2,2.2,0,0,1,2.2,2.2V3.322a2.2,2.2,0,0,1-2.2,2.2H2.2A2.2,2.2,0,0,1,0,3.323V2.2A2.2,2.2,0,0,1,2.2,0Z" transform="translate(7.914 30.237)" fill="#fff"/>
      <path id="Path_30668" data-name="Path 30668" d="M41.965,3.869c5.524,2.926,8.364,5.206,9.068,11.9" transform="translate(-4.046 -0.373)" fill="none" stroke="#fff" stroke-miterlimit="10" stroke-width="0.75"/>
      <path id="Path_30669" data-name="Path 30669" d="M44.452,8.077s3.639-.395,2.58-3.6" transform="translate(-4.286 -0.431)" fill="none" stroke="#fff" stroke-miterlimit="10" stroke-width="0.75"/>
      <path id="Path_30670" data-name="Path 30670" d="M40.4,8.214a6.983,6.983,0,0,0,1.814,2.21A5.207,5.207,0,0,0,49.4,9.579l-.06.074s.03-.033.079-.095.087-.1.087-.1l-.064.076a5.674,5.674,0,0,0,1.27-4.2C50.425,3.952,49.4,1.652,45.789.684a23.112,23.112,0,0,0-6.955-.1A21.421,21.421,0,0,0,40.4,8.214Z" transform="translate(-3.744 -0.036)" fill="none" stroke="#fff" stroke-miterlimit="10" stroke-width="0.75"/>
      <path id="Path_30671" data-name="Path 30671" d="M66.922,3.911c-5.525,2.927-8.366,5.206-9.068,11.9" transform="translate(-5.578 -0.377)" fill="none" stroke="#fff" stroke-miterlimit="10" stroke-width="0.75"/>
      <path id="Path_30672" data-name="Path 30672" d="M65.107,8.119s-3.64-.4-2.581-3.6" transform="translate(-6.01 -0.435)" fill="none" stroke="#fff" stroke-miterlimit="10" stroke-width="0.75"/>
      <path id="Path_30673" data-name="Path 30673" d="M68.182,8.257a6.957,6.957,0,0,1-1.814,2.21,5.206,5.206,0,0,1-7.19-.845l.062.074s-.033-.034-.081-.095-.087-.1-.087-.1l.065.076a5.667,5.667,0,0,1-1.27-4.2C58.155,4,59.186,1.694,62.791.726a23.121,23.121,0,0,1,6.955-.1A21.349,21.349,0,0,1,68.182,8.257Z" transform="translate(-5.575 -0.04)" fill="none" stroke="#fff" stroke-miterlimit="10" stroke-width="0.75"/>
    </g>
  </g>
</svg>
