<svg id="Layer_1" data-name="Layer 1" xmlns="http://www.w3.org/2000/svg" xmlns:xlink="http://www.w3.org/1999/xlink" viewBox="0 0 120 120"><defs><style>.cls-1{fill:#fff;}.cls-2{opacity:0.7;}.cls-3{fill:url(#linear-gradient);}.cls-4{isolation:isolate;}.cls-5{fill:#00b14f;}.cls-6{fill:#00b04f;}</style><linearGradient id="linear-gradient" x1="-274.38" y1="117.54" x2="-273.38" y2="117.54" gradientTransform="matrix(113.57, 0, 0, -113.57, 31164.94, 13409.16)" gradientUnits="userSpaceOnUse"><stop offset="0" stop-color="#fff"/><stop offset="0.13" stop-color="#fafafa"/><stop offset="0.28" stop-color="#ececec"/><stop offset="0.44" stop-color="#d4d4d4"/><stop offset="0.61" stop-color="#b3b3b3"/><stop offset="0.79" stop-color="#888"/><stop offset="0.97" stop-color="#555"/><stop offset="1" stop-color="#4b4b4b"/></linearGradient></defs><path id="Path_29649" data-name="Path 29649" class="cls-1" d="M84.27,48.26a3.57,3.57,0,1,1,1,2.53A3.56,3.56,0,0,1,84.27,48.26Zm11.48-3.37h3.1l-9.48,14.8h-3.1Zm-6.64,3.37a1.27,1.27,0,1,0-1.18,1.35,1.41,1.41,0,0,0,.57-.18,1.29,1.29,0,0,0,.61-1.17Zm4.56,8.14a3.55,3.55,0,1,1,1,2.55A3.58,3.58,0,0,1,93.67,56.4Zm4.81,0A1.26,1.26,0,1,0,96,56.15v.25a1.26,1.26,0,0,0,1.16,1.35,1.25,1.25,0,0,0,1.35-1.15A.67.67,0,0,0,98.48,56.4Z"/><g id="Group_10171" data-name="Group 10171" class="cls-2"><path id="Path_29644" data-name="Path 29644" class="cls-3" d="M60,9.32A50.67,50.67,0,1,1,9.34,60h0A50.67,50.67,0,0,1,60,9.32m0-6.1A56.79,56.79,0,1,0,116.79,60h0A56.8,56.8,0,0,0,60,3.21Z"/></g><g id="_90" data-name=" 90" class="cls-4"><g class="cls-4"><path class="cls-5" d="M48.13,70.63c0,6.38-4.27,10.08-12.53,10.08-8,0-12.62-3.79-12.62-10.08,0-3.56,1.77-6.34,5.85-8.16-3.36-1.83-5.08-4.18-5.08-8,0-5.86,4.51-9.8,11.85-9.8s11.86,3.89,11.86,9.75c0,3.55-1.63,6.14-4.9,8C46.45,64.34,48.13,67,48.13,70.63Zm-6.86-.48c0-2.6-2.26-4.28-5.67-4.28s-5.71,1.68-5.71,4.28,2.21,4.32,5.71,4.32S41.27,72.69,41.27,70.15ZM30.66,55.07c0,2.55,2.11,4.37,4.94,4.37s4.95-1.77,4.95-4.41c0-2.41-1.92-4.09-4.95-4.09S30.66,52.58,30.66,55.07Z"/><path class="cls-5" d="M52,63.23C52,51.33,57.2,44.7,66.51,44.7c8.79,0,14.26,6.68,14.26,17.48,0,11.86-5.14,18.53-14.35,18.53C57.44,80.71,52,74.13,52,63.23Zm21.5-.72c0-7.15-2.44-10.94-7-10.94-4.75,0-7.24,3.93-7.24,11.28,0,7.06,2.54,11,7.15,11S73.52,69.81,73.52,62.51Z"/></g></g><path class="cls-6" d="M60,3.21h-.57V9.34l.57,0A50.67,50.67,0,1,1,9.34,60h0A50.59,50.59,0,0,1,32.08,17.75l-3-4.89-.28-.29a56.78,56.78,0,1,0,88,47.44h0A56.8,56.8,0,0,0,60,3.21Z"/></svg>