<svg xmlns="http://www.w3.org/2000/svg" xmlns:xlink="http://www.w3.org/1999/xlink" width="93.969" height="48.104" viewBox="0 0 93.969 48.104">
  <defs>
    <clipPath id="clip-path">
      <rect id="Rectangle_6211" data-name="Rectangle 6211" width="93.969" height="48.104" fill="none"/>
    </clipPath>
  </defs>
  <g id="Group_10918" data-name="Group 10918" clip-path="url(#clip-path)">
    <path id="Path_30049" data-name="Path 30049" d="M48.72,0c.138.018.275.047.413.053,1.295.054,2.591.077,3.883.162,1.335.089,2.67.2,4,.365,1.723.21,3.448.434,5.157.729A64.4,64.4,0,0,1,79.216,6.567a37,37,0,0,1,8.193,5.23,21.665,21.665,0,0,1,4.38,5,14.26,14.26,0,0,1,1.968,4.965,12.707,12.707,0,0,1-.684,7,17.3,17.3,0,0,1-3.288,5.236,27.78,27.78,0,0,1-5.266,4.53,46.54,46.54,0,0,1-9.925,4.992,68.768,68.768,0,0,1-10.806,3c-1.981.388-3.972.712-5.977.942-1.479.169-2.964.3-4.449.413-2.392.191-4.789.26-7.187.223-1.716-.028-3.433-.087-5.147-.188-2.209-.13-4.409-.368-6.6-.678a73.42,73.42,0,0,1-13.8-3.266,50.211,50.211,0,0,1-9.063-4.111A30.911,30.911,0,0,1,4.67,34.517a18.127,18.127,0,0,1-3.55-5.223A12.946,12.946,0,0,1,0,23.819,13.4,13.4,0,0,1,1.7,17.636a19.833,19.833,0,0,1,3.788-4.859A33.039,33.039,0,0,1,12.4,7.788,54.374,54.374,0,0,1,23.237,3.312a73.041,73.041,0,0,1,8.276-1.957q2.694-.476,5.412-.78C38.846.361,40.772.2,42.7.124,43.415.1,44.127.08,44.84.052A3.679,3.679,0,0,0,45.221,0ZM30.827,5.348c-.3.04-.61.068-.917.127-2,.387-3.979.88-5.935,1.458a50.2,50.2,0,0,0-9.5,3.81,28.776,28.776,0,0,0-6.023,4.179,15.645,15.645,0,0,0-3.516,4.528,9.864,9.864,0,0,0-.539,7.939A13.332,13.332,0,0,0,7.14,31.854a24.4,24.4,0,0,0,5.518,4.467,2.409,2.409,0,0,0,.56.247.892.892,0,0,0,1.1-.4,4.325,4.325,0,0,0,.323-.6c.678-1.5,1.338-3.017,2.028-4.516a139.252,139.252,0,0,1,7.551-14.3,78.663,78.663,0,0,1,7.017-9.894,4.52,4.52,0,0,0,.326-.444,1.277,1.277,0,0,0,.154-.319.486.486,0,0,0-.361-.673,4.505,4.505,0,0,0-.526-.076m59.322,18.7a9.889,9.889,0,0,0-.637-3.482,13.945,13.945,0,0,0-3.063-4.719,24.924,24.924,0,0,0-5.146-4.06,2.534,2.534,0,0,0-.375-.189.981.981,0,0,0-1.366.482c-.167.3-.315.615-.452.931a159.1,159.1,0,0,1-7.078,14.434A95.435,95.435,0,0,1,65.526,37.68c-.891,1.205-1.85,2.361-2.774,3.543a4.271,4.271,0,0,0-.438.638c-.228.438-.056.755.427.854A3.013,3.013,0,0,0,63.9,42.66c1.634-.3,3.247-.694,4.849-1.134A53.161,53.161,0,0,0,78.457,37.9a31.271,31.271,0,0,0,6.379-4.112,17.563,17.563,0,0,0,3.576-4.029,10.605,10.605,0,0,0,1.738-5.71M45.1,44.3l0-.013c.335,0,.669,0,1,0a15.482,15.482,0,0,0,2.392-.091,6.673,6.673,0,0,0,3.547-1.6,9.762,9.762,0,0,0,2.087-2.623,31.885,31.885,0,0,0,2.666-6.34,8.128,8.128,0,0,0,.354-3.134,3.433,3.433,0,0,0-2.227-3.074,6.341,6.341,0,0,0-1.244-.344,10.723,10.723,0,0,0-3.737.094,36.175,36.175,0,0,0-4.241,1.035,101.9,101.9,0,0,0-11.843,4.419,54.22,54.22,0,0,0-8.816,4.832c-.754.519-1.47,1.1-2.19,1.663a2,2,0,0,0-.467.53.668.668,0,0,0,.2.965,2.053,2.053,0,0,0,.424.232c.219.089.445.166.671.234A72.645,72.645,0,0,0,34.076,43.36c2.051.3,4.11.535,6.177.679,1.615.114,3.234.174,4.851.257M42.163,21.122c.386-.038,1.023-.079,1.652-.169a31.437,31.437,0,0,0,3.97-.908c2.361-.657,4.663-1.49,6.955-2.35a80.194,80.194,0,0,0,9.783-4.341,42.324,42.324,0,0,0,6.061-3.847,9.572,9.572,0,0,0,.909-.779c.557-.557.459-1.107-.253-1.433a7.847,7.847,0,0,0-1.033-.371,73.5,73.5,0,0,0-11.1-2.346c-2.087-.283-4.18-.5-6.282-.614-1.757-.094-3.517-.129-5.276-.166a14.706,14.706,0,0,0-1.841.078A6.558,6.558,0,0,0,41.617,5.9a11.839,11.839,0,0,0-1.958,2.766,37.651,37.651,0,0,0-1.7,3.847,19.743,19.743,0,0,0-.682,2.055,7.955,7.955,0,0,0-.311,3.1,3.477,3.477,0,0,0,2.459,3.072,8.369,8.369,0,0,0,2.736.376" transform="translate(0 0)" fill="#fff"/>
  </g>
</svg>
