<svg id="Group_10480" data-name="Group 10480" xmlns="http://www.w3.org/2000/svg" xmlns:xlink="http://www.w3.org/1999/xlink" width="105.438" height="99.795" viewBox="0 0 105.438 99.795">
  <defs>
    <clipPath id="clip-path">
      <rect id="Rectangle_5978" data-name="Rectangle 5978" width="105.438" height="99.795" fill="none"/>
    </clipPath>
  </defs>
  <rect id="Rectangle_5977" data-name="Rectangle 5977" width="23.687" height="12.209" transform="translate(57.757 5.283)" fill="#fff"/>
  <g id="Group_10481" data-name="Group 10481">
    <g id="Group_10480-2" data-name="Group 10480" clip-path="url(#clip-path)">
      <path id="Path_29784" data-name="Path 29784" d="M105.087,92.584H98.606V53.059h4.44a.353.353,0,0,0,.353-.353V44.574a.353.353,0,0,0-.353-.353H95.029L71.366,28.583a.356.356,0,0,0-.372-.01L57.757,36.29V18.2H81.8a.353.353,0,0,0,.353-.353V5.635a.353.353,0,0,0-.353-.353H57.757V2.09a.353.353,0,0,0-.353-.353H52.028a.353.353,0,0,0-.353.353V39.835L44.6,43.96V13.836c0-.013-.012-.02-.014-.034a.32.32,0,0,0-.051-.122.327.327,0,0,0-.072-.108c-.01-.009-.01-.023-.02-.031L24.31.059a.353.353,0,0,0-.393,0L3.783,13.541c-.011.007-.011.022-.02.031a.327.327,0,0,0-.072.108.32.32,0,0,0-.051.122c0,.012-.014.02-.014.034V92.584H.353A.353.353,0,0,0,0,92.936v6.506a.353.353,0,0,0,.353.353H105.085a.353.353,0,0,0,.353-.353V92.936a.352.352,0,0,0-.352-.353Zm-47.33-86.6H81.444v11.5H57.757ZM52.381,2.443H57.05V36.7l-4.669,2.723ZM71.159,29.292,93.746,44.219H45.554ZM44.6,44.925h58.092v7.427H44.6Zm0,8.132H97.9V92.582H44.6ZM24.113.778l18.972,12.7H5.142ZM4.332,14.188H43.9V92.581h-9.3V67.418a.353.353,0,0,0-.353-.353H13.991a.353.353,0,0,0-.353.353V92.581H4.333ZM33.884,92.581H24.466V67.773h9.418Zm-10.123,0H14.344V67.773h9.417Zm80.972,6.507H.706v-5.8H104.735Z" transform="translate(0 0)" fill="#fff"/>
      <path id="Path_29785" data-name="Path 29785" d="M60.451,112.4h7.074a.353.353,0,0,0,.353-.353v-6.059a.353.353,0,0,0-.353-.353H60.451a.353.353,0,0,0-.353.353v6.059A.352.352,0,0,0,60.451,112.4Zm.353-6.059h6.368V111.7H60.8Z" transform="translate(-46.458 -81.664)" fill="#fff"/>
      <path id="Path_29786" data-name="Path 29786" d="M118.482,112.4h7.074a.353.353,0,0,0,.353-.353v-6.059a.353.353,0,0,0-.353-.353h-7.074a.353.353,0,0,0-.353.353v6.059A.353.353,0,0,0,118.482,112.4Zm.353-6.059H125.2V111.7h-6.368Z" transform="translate(-91.319 -81.664)" fill="#fff"/>
      <path id="Path_29787" data-name="Path 29787" d="M60.451,168.274h7.074a.353.353,0,0,0,.353-.353v-6.059a.353.353,0,0,0-.353-.353H60.451a.353.353,0,0,0-.353.353v6.059a.352.352,0,0,0,.353.353m.353-6.059h6.368v5.352H60.8Z" transform="translate(-46.458 -124.854)" fill="#fff"/>
      <path id="Path_29788" data-name="Path 29788" d="M118.482,168.274h7.074a.353.353,0,0,0,.353-.353v-6.059a.353.353,0,0,0-.353-.353h-7.074a.353.353,0,0,0-.353.353v6.059A.353.353,0,0,0,118.482,168.274Zm.353-6.059H125.2v5.352h-6.368Z" transform="translate(-91.319 -124.854)" fill="#fff"/>
      <path id="Path_29789" data-name="Path 29789" d="M60.451,226.284h7.074a.353.353,0,0,0,.353-.353v-6.059a.353.353,0,0,0-.353-.353H60.451a.353.353,0,0,0-.353.353v6.059a.352.352,0,0,0,.353.353m.353-6.058h6.368v5.352H60.8Z" transform="translate(-46.458 -169.698)" fill="#fff"/>
      <path id="Path_29790" data-name="Path 29790" d="M118.482,226.284h7.074a.353.353,0,0,0,.353-.353v-6.059a.353.353,0,0,0-.353-.353h-7.074a.353.353,0,0,0-.353.353v6.059A.353.353,0,0,0,118.482,226.284Zm.353-6.058H125.2v5.352h-6.368Z" transform="translate(-91.319 -169.698)" fill="#fff"/>
      <path id="Path_29791" data-name="Path 29791" d="M268.759,274.014H232.491a.353.353,0,0,0-.353.353v8.224a.353.353,0,0,0,.353.353h36.268a.353.353,0,0,0,.353-.353v-8.224a.354.354,0,0,0-.354-.353Zm-.353,8.224H232.844V274.72h35.562Z" transform="translate(-179.453 -211.824)" fill="#fff"/>
      <path id="Path_29792" data-name="Path 29792" d="M268.759,339.394H232.491a.353.353,0,0,0-.353.353v8.225a.353.353,0,0,0,.353.353h36.268a.353.353,0,0,0,.353-.353v-8.225a.354.354,0,0,0-.354-.353Zm-.353,8.225H232.844V340.1h35.562Z" transform="translate(-179.453 -262.366)" fill="#fff"/>
    </g>
  </g>
</svg>
