<svg xmlns="http://www.w3.org/2000/svg" xmlns:xlink="http://www.w3.org/1999/xlink" width="70" height="59.85" viewBox="0 0 70 59.85">
  <defs>
    <clipPath id="clip-path">
      <rect id="Rectangle_586" data-name="Rectangle 586" width="70" height="24.85" transform="translate(0 0)" fill="#fff"/>
    </clipPath>
  </defs>
  <g id="Group_9656" data-name="Group 9656" transform="translate(-25 -34)">
    <rect id="Rectangle_5301" data-name="Rectangle 5301" width="70" height="5" transform="translate(25 34)" fill="#fff"/>
    <rect id="Rectangle_5303" data-name="Rectangle 5303" width="52" height="5" transform="translate(25 54)" fill="#fff"/>
    <rect id="Rectangle_5302" data-name="Rectangle 5302" width="36" height="5" transform="translate(25 44)" fill="#fff"/>
    <g id="Group_9692" data-name="Group 9692" transform="translate(25 69)">
      <g id="Group_1257" data-name="Group 1257" transform="translate(0 0)" clip-path="url(#clip-path)">
        <path id="Path_1290" data-name="Path 1290" d="M2.878,13.183A8.682,8.682,0,0,0,11.6,22.1c4.735,0,7.118-3.064,7.118-6.437V14.452h-6.9v1.857h5.013c.031,1.826-1.64,3.961-5.23,3.961-3.961,0-6.715-2.94-6.715-7.087a6.831,6.831,0,0,1,7.056-6.994A11.133,11.133,0,0,1,18.661,8.2l.124-.093V6.375a12.349,12.349,0,0,0-6.9-2.012,8.838,8.838,0,0,0-9.005,8.82M0,13.183A11.339,11.339,0,0,0,11.6,24.85c6.066,0,9.779-3.807,9.779-9.965V11.728H11.822v1.795h7.829v1.671c0,4.828-3,7.829-8.046,7.829A9.52,9.52,0,0,1,1.95,13.183a9.731,9.731,0,0,1,9.934-9.748,12.071,12.071,0,0,1,6.9,1.919V3.528a11.6,11.6,0,0,0-6.9-1.919A11.589,11.589,0,0,0,0,13.183m25.314,1.578v9.562H27.14V14.792a3.4,3.4,0,0,1,3.466-3.652,4.439,4.439,0,0,1,1.764.4,9.08,9.08,0,0,1,.8-1.547,4.788,4.788,0,0,0-2.538-.712,5.176,5.176,0,0,0-5.323,5.478m-2.692,9.562h1.826V14.761a5.979,5.979,0,0,1,6.22-6.344,6.706,6.706,0,0,1,3.064.743,9.017,9.017,0,0,1,1.207-1.238,7.642,7.642,0,0,0-4.363-1.269c-4.859,0-7.953,3.281-7.953,8.139ZM51.247,13.616v2.692c1.083-1.455,2.012-2.723,2.878-3.776,2.2-2.692,4.116-4.178,7.087-4.178,4.023,0,6.963,3.033,6.963,7.3,0,4.178-2.878,7.365-6.839,7.365a6.761,6.761,0,0,1-6.654-5.2l-1.3,1.764A8.2,8.2,0,0,0,61.3,24.85c5.013,0,8.7-4.023,8.7-9.191,0-5.23-3.714-9.16-8.788-9.16-5.261,0-7.675,3.93-9.965,7.118m5.663,1.361h-.062l-1.424,1.95a6.17,6.17,0,0,0,5.911,5.2c3.466,0,5.973-2.816,5.973-6.5a6.071,6.071,0,0,0-6.1-6.406c-3.435,0-5.416,2.507-6.808,4.364-.681.9-1.857,2.352-3.157,4.178v2.971c1.207-1.795,2.847-3.9,4.054-5.354,2.042-2.445,3.28-4.3,5.88-4.3a4.255,4.255,0,0,1,4.271,4.549c0,2.692-1.64,4.673-4.116,4.673-2.6,0-4.425-2.383-4.425-5.044ZM55.084,0V7.705A7.784,7.784,0,0,1,56.91,6.5V0ZM52.361,10.521a23.777,23.777,0,0,1,1.826-2.135V0H52.361Zm-7.427,8.82L44.9,19.31a5.476,5.476,0,0,1-3.25.99,4.3,4.3,0,0,1-4.332-4.611,4.372,4.372,0,0,1,4.271-4.642,4.145,4.145,0,0,1,4.24,4.487v8.788h1.826V15.442a5.919,5.919,0,0,0-6.034-6.22,6.126,6.126,0,0,0-6.189,6.468c0,3.806,2.661,6.53,6.189,6.437a6.79,6.79,0,0,0,3.311-.959ZM32.679,15.659c0,5.385,3.806,9.191,8.943,9.191a5.73,5.73,0,0,0,3.311-.99V22.033a5.832,5.832,0,0,1-3.311.99c-4.209,0-7.056-2.971-7.056-7.365a7.016,7.016,0,0,1,7.056-7.3,6.739,6.739,0,0,1,6.9,7.056v8.912H50.38V15.38a8.526,8.526,0,0,0-8.757-8.912,8.928,8.928,0,0,0-8.943,9.191" transform="translate(0 0)" fill="#fff"/>
      </g>
    </g>
  </g>
</svg>
