<svg xmlns="http://www.w3.org/2000/svg" xmlns:xlink="http://www.w3.org/1999/xlink" width="80" height="73.73" viewBox="0 0 80 73.73">
  <defs>
    <clipPath id="clip-path">
      <rect id="Rectangle_5833" data-name="Rectangle 5833" width="80" height="73.73" fill="none"/>
    </clipPath>
  </defs>
  <g id="Group_10273" data-name="Group 10273" transform="translate(0 0)">
    <rect id="Rectangle_5830" data-name="Rectangle 5830" width="22.652" height="7.723" transform="translate(28.392 66.007)" fill="#fff"/>
    <g id="Group_10211" data-name="Group 10211" transform="translate(0 0)">
      <g id="Group_10210" data-name="Group 10210" clip-path="url(#clip-path)">
        <path id="Path_29703" data-name="Path 29703" d="M57.367,78.618V76.881a4.3,4.3,0,0,0-4.3-4.3H39.018a4.3,4.3,0,0,0-4.3,4.3v1.738Z" transform="translate(-6.325 -13.223)" fill="#fff"/>
        <path id="Path_29704" data-name="Path 29704" d="M33.746,54.417A7.77,7.77,0,0,0,37.5,61.068a.028.028,0,0,1,.014.023v6.067a.575.575,0,0,0,.575.576H53.209a.576.576,0,0,0,.576-.576V61.093a.024.024,0,0,1,.011-.024.263.263,0,0,1,.1-.048c6.124-1.021,8.253-10.43,8.36-11.785l.312-3.957c0-2.549-5.124-3.106-5.014.643h0v-17.5A3.554,3.554,0,0,0,54.48,24.83a3.432,3.432,0,0,0-3.057,1.285.025.025,0,0,1-.045-.015,3.44,3.44,0,0,0-3.813-3.162,3.55,3.55,0,0,0-3.05,3.582v.451a.026.026,0,0,1-.047.016,3.432,3.432,0,0,0-3.082-1.264,3.553,3.553,0,0,0-3.034,3.584v2.112a.027.027,0,0,1-.046.02,2.7,2.7,0,0,0-2.052-.721,2.829,2.829,0,0,0-2.507,2.875Z" transform="translate(-6.148 -4.175)" fill="none" stroke="#fff" stroke-miterlimit="10" stroke-width="0.75"/>
        <line id="Line_378" data-name="Line 378" y1="13.798" transform="translate(32.201 27.306)" fill="none" stroke="#fff" stroke-miterlimit="10" stroke-width="0.75"/>
        <line id="Line_379" data-name="Line 379" y2="18.231" transform="translate(38.366 22.873)" fill="none" stroke="#fff" stroke-miterlimit="10" stroke-width="0.75"/>
        <line id="Line_380" data-name="Line 380" y2="19.113" transform="translate(45.234 21.991)" fill="none" stroke="#fff" stroke-miterlimit="10" stroke-width="0.75"/>
        <line id="Line_381" data-name="Line 381" y2="8.544" transform="translate(51.406 37.967)" fill="none" stroke="#fff" stroke-miterlimit="10" stroke-width="0.75"/>
        <rect id="Rectangle_5831" data-name="Rectangle 5831" width="7.722" height="22.648" transform="matrix(0.717, -0.697, 0.697, 0.717, 58.682, 5.379)" fill="#fff"/>
        <path id="Path_29705" data-name="Path 29705" d="M86.427,23.347l-1.246,1.21a4.3,4.3,0,0,1-6.08-.089L69.312,14.39A4.3,4.3,0,0,1,69.4,8.31L70.648,7.1Z" transform="translate(-12.406 -1.293)" fill="#fff"/>
        <path id="Path_29706" data-name="Path 29706" d="M65.682,42.125l1.264-1.231h0c-2.767,2.533,1.2,5.819,3.032,4.045L72.6,41.958c.9-1.02,6.162-9.1,2.629-14.207a.282.282,0,0,1-.034-.1.026.026,0,0,1,.009-.025l4.35-4.225a.574.574,0,0,0,.012-.814L69.032,11.736a.575.575,0,0,0-.814-.011L63.866,15.95a.026.026,0,0,1-.026.007A7.767,7.767,0,0,0,56.454,17.9L52.9,21.177M65.682,42.125h0" transform="translate(-9.637 -2.106)" fill="none" stroke="#fff" stroke-miterlimit="10" stroke-width="0.75"/>
        <line id="Line_382" data-name="Line 382" y1="4.549" x2="4.684" transform="translate(56.044 35.47)" fill="none" stroke="#fff" stroke-miterlimit="10" stroke-width="0.75"/>
        <rect id="Rectangle_5832" data-name="Rectangle 5832" width="22.648" height="7.722" transform="translate(0 16.248) rotate(-45.841)" fill="#fff"/>
        <path id="Path_29707" data-name="Path 29707" d="M7.312,23.347l1.246,1.21a4.3,4.3,0,0,0,6.08-.089L24.426,14.39a4.3,4.3,0,0,0-.089-6.08L23.091,7.1Z" transform="translate(-1.332 -1.293)" fill="#fff"/>
        <path id="Path_29708" data-name="Path 29708" d="M40.83,22.7l-5.439-4.8a7.769,7.769,0,0,0-7.386-1.941.028.028,0,0,1-.026-.007l-4.352-4.226a.575.575,0,0,0-.814.011L12.279,22.584a.575.575,0,0,0,.011.814l4.351,4.225a.024.024,0,0,1,.009.025.261.261,0,0,1-.034.1c-3.533,5.1,1.733,13.186,2.63,14.206l2.621,2.983c1.831,1.773,5.8-1.513,3.032-4.046h0l4.684,4.549m-1.973-1.915.638.619" transform="translate(-2.207 -2.106)" fill="none" stroke="#fff" stroke-miterlimit="10" stroke-width="0.75"/>
        <line id="Line_383" data-name="Line 383" x1="6.129" y1="5.952" transform="translate(19.273 35.471)" fill="none" stroke="#fff" stroke-miterlimit="10" stroke-width="0.75"/>
      </g>
    </g>
  </g>
</svg>
