<svg xmlns="http://www.w3.org/2000/svg" xmlns:xlink="http://www.w3.org/1999/xlink" width="34" height="36" viewBox="0 0 34 36">
  <defs>
    <clipPath id="clip-path">
      <rect width="34" height="36" fill="none"/>
    </clipPath>
    <clipPath id="clip-path-2">
      <rect id="Rectangle_27" data-name="Rectangle 27" width="34" height="36" fill="#fff" stroke="#fff" stroke-width="0.5"/>
    </clipPath>
  </defs>
  <g id="Repeat_Grid_1" data-name="Repeat Grid 1" clip-path="url(#clip-path)">
    <g transform="translate(-47 -994)">
      <g id="UI_Btn_Share" data-name="UI Btn Share" transform="translate(47 994)">
        <g id="Group_2" data-name="Group 2" clip-path="url(#clip-path-2)">
          <path id="Path_1" data-name="Path 1" d="M26.193,22.272a6.334,6.334,0,0,0-4.831,2.215L12.327,19.42a6.168,6.168,0,0,0,0-4.055L21.362,10.3A6.35,6.35,0,0,0,32.528,6.255a6.335,6.335,0,0,0-12.67,0,6.112,6.112,0,0,0,.343,2.03l-9.035,5.067a6.256,6.256,0,1,0,0,8.081L20.2,26.5a6.1,6.1,0,0,0-.343,2.027,6.335,6.335,0,1,0,6.335-6.255M22.2,6.255a3.989,3.989,0,1,1,3.989,3.939A4.006,4.006,0,0,1,23.46,9.121,3.911,3.911,0,0,1,22.3,7.108a3.786,3.786,0,0,1-.1-.853M6.335,21.331a3.939,3.939,0,1,1,2.733-6.8,3.908,3.908,0,0,1,1.159,2.016,3.806,3.806,0,0,1,0,1.7,3.908,3.908,0,0,1-1.159,2.016,4,4,0,0,1-2.733,1.073M26.193,32.466A3.968,3.968,0,0,1,22.2,28.527a3.768,3.768,0,0,1,.1-.85,3.881,3.881,0,0,1,1.161-2.013,3.961,3.961,0,1,1,2.731,6.8" transform="translate(0.548 0.545)" fill="#fff" stroke="#fff" stroke-width="0.5"/>
        </g>
      </g>
    </g>
  </g>
</svg>
