<svg xmlns="http://www.w3.org/2000/svg" xmlns:xlink="http://www.w3.org/1999/xlink" width="64" height="62.695" viewBox="0 0 64 62.695">
  <defs>
    <clipPath id="clip-path">
      <rect id="Rectangle_6169" data-name="Rectangle 6169" width="64" height="62.695" fill="none"/>
    </clipPath>
  </defs>
  <g id="Group_10827" data-name="Group 10827" clip-path="url(#clip-path)">
    <path id="Path_29975" data-name="Path 29975" d="M58.189,29.123a7.923,7.923,0,0,0-5.7-12.6,11.729,11.729,0,1,0-21.718.026,7.925,7.925,0,0,0-5.439,12.573,10.646,10.646,0,0,0,3.114,20.826H55.075a10.646,10.646,0,0,0,3.114-20.826Z" transform="translate(-2.052 -0.043)" fill="none" stroke="#fff" stroke-miterlimit="10" stroke-width="0.75"/>
    <line id="Line_402" data-name="Line 402" y2="41.478" transform="translate(39.711 19.357)" fill="none" stroke="#fff" stroke-miterlimit="10" stroke-width="0.75"/>
    <path id="Path_29976" data-name="Path 29976" d="M37.645,49.95H11.018A10.647,10.647,0,0,1,7.905,29.122a7.8,7.8,0,0,1-1.138-2.185A7.928,7.928,0,0,1,13.343,16.55,11.73,11.73,0,0,1,31.911,3.267" transform="translate(-0.043 -0.043)" fill="none" stroke="#fff" stroke-miterlimit="10" stroke-width="0.75"/>
    <line id="Line_403" data-name="Line 403" y2="10.93" transform="translate(24.288 49.905)" fill="none" stroke="#fff" stroke-miterlimit="10" stroke-width="0.75"/>
    <path id="Path_29977" data-name="Path 29977" d="M36.747,25.92l7.2,6.931,6.817-6.931" transform="translate(-4.234 -2.986)" fill="none" stroke="#fff" stroke-miterlimit="10" stroke-width="0.75"/>
    <path id="Path_29978" data-name="Path 29978" d="M34.968,38.512,43.783,47l8.349-8.487" transform="translate(-4.029 -4.437)" fill="none" stroke="#fff" stroke-miterlimit="10" stroke-width="0.75"/>
    <rect id="Rectangle_6168" data-name="Rectangle 6168" width="63.337" height="1.86" transform="translate(0.331 60.835)" fill="#fff"/>
  </g>
</svg>
