<svg xmlns="http://www.w3.org/2000/svg" xmlns:xlink="http://www.w3.org/1999/xlink" width="40" height="49.176" viewBox="0 0 40 49.176"><defs><clipPath id="a"><rect width="40" height="49.176" fill="none"/></clipPath></defs><g clip-path="url(#a)"><path d="M37.21,39.534a.375.375,0,0,1-.375-.375V14.925a1.675,1.675,0,0,0-1.673-1.673H24.084a1.675,1.675,0,0,0-1.673,1.673V39.159a.375.375,0,0,1-.75,0V14.925A2.426,2.426,0,0,1,24.084,12.5H35.162a2.426,2.426,0,0,1,2.423,2.423V39.159A.375.375,0,0,1,37.21,39.534Z" transform="translate(-9.623 -5.623)" fill="#fff"/><path d="M58.494,45.949a.375.375,0,0,1-.375-.375V28.482a1.675,1.675,0,0,0-1.673-1.674H48.973a.375.375,0,0,1,0-.75h7.473a2.426,2.426,0,0,1,2.423,2.424V45.574A.375.375,0,0,1,58.494,45.949Z" transform="translate(-21.386 -11.543)" fill="#fff"/><path d="M5.134,45.949a.375.375,0,0,1-.375-.375V28.482a2.426,2.426,0,0,1,2.423-2.424h7.473a.375.375,0,1,1,0,.75H7.182a1.675,1.675,0,0,0-1.673,1.674V45.574A.375.375,0,0,1,5.134,45.949Z" transform="translate(-2.242 -11.543)" fill="#fff"/><path d="M2.133,0h0A2.131,2.131,0,0,1,4.264,2.131v.1A2.132,2.132,0,0,1,2.133,4.363h0A2.133,2.133,0,0,1,0,2.231v-.1A2.133,2.133,0,0,1,2.133,0Z" transform="translate(14.298 11.954)" fill="#fff"/><path d="M2.132,0h0A2.132,2.132,0,0,1,4.264,2.132v.1A2.131,2.131,0,0,1,2.133,4.363h0A2.132,2.132,0,0,1,0,2.231v-.1A2.132,2.132,0,0,1,2.132,0Z" transform="translate(21.438 11.954)" fill="#fff"/><path d="M2.132,0h0A2.132,2.132,0,0,1,4.264,2.132v.1A2.131,2.131,0,0,1,2.133,4.363h0A2.132,2.132,0,0,1,0,2.231v-.1A2.132,2.132,0,0,1,2.132,0Z" transform="translate(14.298 18.896)" fill="#fff"/><path d="M2.132,0h0A2.132,2.132,0,0,1,4.264,2.132v.1A2.131,2.131,0,0,1,2.133,4.363h0A2.132,2.132,0,0,1,0,2.231v-.1A2.132,2.132,0,0,1,2.132,0Z" transform="translate(21.438 18.896)" fill="#fff"/><path d="M19.291,6.668a3.168,3.168,0,0,1-1.2-1.207,3.425,3.425,0,0,1-.435-1.718A3.266,3.266,0,0,1,19.348.856,3.493,3.493,0,0,1,21.083.417a3.373,3.373,0,0,1,1.988.55v.523a2.612,2.612,0,0,0-.879-.412A4.215,4.215,0,0,0,21.083.941a2.882,2.882,0,0,0-1.446.372A2.774,2.774,0,0,0,18.6,2.329a2.724,2.724,0,0,0-.382,1.414,2.9,2.9,0,0,0,.364,1.447,2.68,2.68,0,0,0,1,1.02A2.761,2.761,0,0,0,21,6.584a2.33,2.33,0,0,0,1.695-.6,2.193,2.193,0,0,0,.621-1.65V3.842H21.065V3.327h2.751v.914a3.222,3.222,0,0,1-.342,1.526,2.355,2.355,0,0,1-.976.994,3.071,3.071,0,0,1-1.5.346,3.372,3.372,0,0,1-1.712-.439m.434-.688a2.447,2.447,0,0,1-.909-.927,2.621,2.621,0,0,1-.333-1.31,2.461,2.461,0,0,1,.346-1.282,2.522,2.522,0,0,1,.945-.919,2.626,2.626,0,0,1,1.309-.336,3.857,3.857,0,0,1,1.074.15,3.031,3.031,0,0,1,.914.426v.506l-.036.026A3.323,3.323,0,0,0,21.1,1.73a2.1,2.1,0,0,0-1.043.262,1.879,1.879,0,0,0-.728.723,2.045,2.045,0,0,0-.262,1.029A2.247,2.247,0,0,0,19.313,4.8,1.766,1.766,0,0,0,20,5.528a1.968,1.968,0,0,0,1,.257,1.922,1.922,0,0,0,.768-.146,1.285,1.285,0,0,0,.537-.408A.948.948,0,0,0,22.5,4.65H21.065V4.117h1.987v.346a1.814,1.814,0,0,1-.257.963,1.739,1.739,0,0,1-.723.656A2.334,2.334,0,0,1,21,6.318a2.481,2.481,0,0,1-1.278-.337m4.73-3a2.015,2.015,0,0,1,.8-.825,2.4,2.4,0,0,1,1.2-.293,2.091,2.091,0,0,1,1.26.372,2.77,2.77,0,0,0-.346.355,1.118,1.118,0,0,0-.381-.151,2.141,2.141,0,0,0-.506-.063,1.853,1.853,0,0,0-.931.231,1.6,1.6,0,0,0-.634.648,1.956,1.956,0,0,0-.227.949V6.956h-.523V4.214a2.571,2.571,0,0,1,.284-1.233m.692.4a1.412,1.412,0,0,1,.541-.559,1.545,1.545,0,0,1,.789-.2,1.494,1.494,0,0,1,.737.2,4.759,4.759,0,0,0-.23.444,1.141,1.141,0,0,0-.515-.115.942.942,0,0,0-.719.293,1.069,1.069,0,0,0-.275.763V6.956h-.524V4.206a1.692,1.692,0,0,1,.2-.821m3.167,3.393a2.343,2.343,0,0,1-.914-.914,2.652,2.652,0,0,1-.328-1.322,2.889,2.889,0,0,1,.337-1.4A2.5,2.5,0,0,1,29.645,1.81a2.545,2.545,0,0,1,1.3.333,2.35,2.35,0,0,1,.9.922,2.693,2.693,0,0,1,.324,1.318V6.956h-.532V4.392a2.126,2.126,0,0,0-.257-1.043,1.878,1.878,0,0,0-.71-.727,2.008,2.008,0,0,0-1.021-.262,1.979,1.979,0,0,0-1.047.28,1.955,1.955,0,0,0-.723.776,2.384,2.384,0,0,0-.261,1.127A2.128,2.128,0,0,0,27.87,5.6a1.867,1.867,0,0,0,.719.723,2.107,2.107,0,0,0,1.056.262,1.476,1.476,0,0,0,.949-.284v.523a1.373,1.373,0,0,1-.421.217,1.819,1.819,0,0,1-.528.066,2.673,2.673,0,0,1-1.331-.328m2.2-3.278a1.151,1.151,0,0,0-.878-.368,1.118,1.118,0,0,0-.887.4,1.5,1.5,0,0,0-.347,1.02,1.219,1.219,0,0,0,.338.91,1.244,1.244,0,0,0,.913.332,1.754,1.754,0,0,0,.519-.075,1.144,1.144,0,0,0,.4-.208l.017.009v.524a1.546,1.546,0,0,1-.949.283,1.885,1.885,0,0,1-.927-.222,1.578,1.578,0,0,1-.63-.625,1.868,1.868,0,0,1-.227-.928,2.164,2.164,0,0,1,.227-1.007,1.682,1.682,0,0,1,.634-.688,1.837,1.837,0,0,1,1.814-.017,1.649,1.649,0,0,1,.621.638,1.869,1.869,0,0,1,.226.923V6.956h-.523V4.427a1.3,1.3,0,0,0-.346-.927m3.363,3.176a2.2,2.2,0,0,1-.843-1.087l.372-.506a1.766,1.766,0,0,0,.368.768,2,2,0,0,0,.683.537,1.967,1.967,0,0,0,.866.2,1.871,1.871,0,0,0,1.007-.28,1.982,1.982,0,0,0,.705-.763,2.259,2.259,0,0,0,.257-1.078,2.252,2.252,0,0,0-.262-1.087,1.931,1.931,0,0,0-.719-.754,2.1,2.1,0,0,0-2.1.022,4.268,4.268,0,0,0-.967.914q-.222.266-.834,1.092V3.868q.444-.639.772-1.024a3.454,3.454,0,0,1,.869-.71,2.351,2.351,0,0,1,1.233-.324,2.469,2.469,0,0,1,1.3.346,2.44,2.44,0,0,1,.9.954,2.8,2.8,0,0,1,.329,1.353,2.781,2.781,0,0,1-.324,1.34,2.454,2.454,0,0,1-.9.954,2.409,2.409,0,0,1-1.282.35,2.441,2.441,0,0,1-1.438-.43m.608-.582a1.856,1.856,0,0,1-.6-.581,1.572,1.572,0,0,1-.262-.688l.408-.559h.017v.08a1.6,1.6,0,0,0,.164.714,1.353,1.353,0,0,0,.457.532,1.136,1.136,0,0,0,.656.2,1.073,1.073,0,0,0,.852-.377,1.412,1.412,0,0,0,.328-.963,1.355,1.355,0,0,0-.341-.945,1.137,1.137,0,0,0-.883-.376,1.252,1.252,0,0,0-.567.124,1.6,1.6,0,0,0-.443.328q-.2.2-.515.585c-.071.095-.127.166-.168.213q-.737.887-1.172,1.535V5.066l.612-.816c.065-.083.165-.213.3-.39a3.751,3.751,0,0,1,.954-.963,1.834,1.834,0,0,1,1.007-.3,1.733,1.733,0,0,1,.9.24,1.671,1.671,0,0,1,.63.665,1.994,1.994,0,0,1,.226.949,2.022,2.022,0,0,1-.226.954,1.729,1.729,0,0,1-.617.674,1.623,1.623,0,0,1-.878.244,1.572,1.572,0,0,1-.839-.231M33.265,0V2.369a6.686,6.686,0,0,0-.532.613V0Zm.781,0V1.836a1.908,1.908,0,0,0-.523.337V0Z" transform="translate(-7.711 0)" fill="#fff"/><path d="M5.867,60.894h0a17.122,17.122,0,0,1,8.055,1.9,17.08,17.08,0,0,1,5.127,4.18,19.286,19.286,0,0,1,3.487,6.079.374.374,0,0,1,.009.037,1.462,1.462,0,0,1-.216,1.149,2.335,2.335,0,0,1-1.426.826A19.771,19.771,0,0,1,14.883,76.1a13.078,13.078,0,0,1-7.456-2.216,15.944,15.944,0,0,1-4.542-4.847A23.009,23.009,0,0,1,.007,62.02a.375.375,0,0,1,.282-.437A24.432,24.432,0,0,1,5.867,60.894ZM21.816,73.259a18.993,18.993,0,0,0-3.357-5.821,15.773,15.773,0,0,0-12.59-5.794h0a23.4,23.4,0,0,0-5.043.585,23.026,23.026,0,0,0,2.709,6.425c2.782,4.44,6.6,6.692,11.35,6.692a19.047,19.047,0,0,0,5.816-1,.376.376,0,0,1,.057-.014,1.636,1.636,0,0,0,.961-.521A.7.7,0,0,0,21.816,73.259Z" transform="translate(-0.164 -26.756)" fill="#fff"/><path d="M29.074,78.372a.375.375,0,0,1-.333-.2c-1.873-3.581-12.4-7.208-12.507-7.244a.375.375,0,0,1,.242-.71c.445.152,10.919,3.762,12.929,7.606a.375.375,0,0,1-.332.549Z" transform="translate(-7.143 -30.818)" fill="#fff"/><path d="M44.02,76.861a18.358,18.358,0,0,1-4.266-.531.375.375,0,0,1-.264-.5,11.514,11.514,0,0,1,2.186-3.31,16.248,16.248,0,0,1,8.318-4.774.375.375,0,1,1,.178.729,15.5,15.5,0,0,0-7.941,4.55,11.984,11.984,0,0,0-1.86,2.674c5.271,1.141,9.621-.065,12.934-3.59a16.817,16.817,0,0,0,3.412-5.591c-4.786-1.81-8.838-1.6-12.047.64a10.7,10.7,0,0,0-3.46,4,.375.375,0,1,1-.688-.3,11.309,11.309,0,0,1,3.72-4.321,10.98,10.98,0,0,1,5.215-1.912,16.85,16.85,0,0,1,7.868,1.318.375.375,0,0,1,.222.454,17.045,17.045,0,0,1-3.675,6.2,13.189,13.189,0,0,1-5.482,3.574A13.744,13.744,0,0,1,44.02,76.861Z" transform="translate(-17.398 -28.36)" fill="#fff"/></g></svg>