<svg xmlns="http://www.w3.org/2000/svg" xmlns:xlink="http://www.w3.org/1999/xlink" width="40" height="39.782" viewBox="0 0 40 39.782"><defs><clipPath id="a"><rect width="40" height="39.782" fill="none"/></clipPath></defs><g clip-path="url(#a)"><path d="M30.353,17.969a11.9,11.9,0,1,1-8.417,3.487A11.825,11.825,0,0,1,30.353,17.969Zm0,23.058A11.154,11.154,0,1,0,19.2,29.873,11.167,11.167,0,0,0,30.353,41.027Z" transform="translate(-10.243 -9.982)" fill="#fff"/><path d="M20.576,40.19v-.75a19.342,19.342,0,1,0-10.814-3.3l-.42.621A20.124,20.124,0,1,1,20.576,40.19Z" transform="translate(-0.466 -0.204)" fill="#fff"/><path d="M8.934,73.24a2.944,2.944,0,0,1,.455-2.583,4.059,4.059,0,0,1,2.885-1.209v.75a3.355,3.355,0,0,0-2.3.932,2.241,2.241,0,0,0-.3,1.951Z" transform="translate(-5.01 -37.995)" fill="#fff"/><path d="M54.2,49.981l-.108-.18c-1.741-3.12-4.716-6.6-8.561-3.99-1.451.944-1.451,2.83-1.233,4.5.144,1.217.779,4.057.447,5.526A11.524,11.524,0,0,0,54.2,49.981" transform="translate(-24.049 -24.429)" fill="#fff"/><path d="M18.824,30.27a11.509,11.509,0,0,0,.75,4.092l.328.3c4.158,0,6.419-2.376,6.419-6.534,0-3.147,4.537-6.285,1.281-9.054a11.533,11.533,0,0,0-8.777,11.2" transform="translate(-10.243 -10.379)" fill="#fff"/><path d="M50.244,20.292l-.166.016c-2.539.653-4.425,4.715-1.016,5.731.653.218,1.378-.072,2.032.072.725.218,1.161.943,1.741,1.378a3.325,3.325,0,0,0,3.628.435l.38-.319a11.557,11.557,0,0,0-6.6-7.315" transform="translate(-25.692 -11.042)" fill="#fff"/><path d="M5.884,60.575h0A5.818,5.818,0,0,1,9.71,62.139l.017.016A7.461,7.461,0,0,1,11.4,64.7l.01.026a22.062,22.062,0,0,1,.784,7.979l-.019.352-.352,0h-.245A23.728,23.728,0,0,1,4.73,72.18L4.7,72.171C.96,70.719.153,68.086.005,66.646l0-.023a6.061,6.061,0,0,1,1.756-4.28l0,0s.042-.044.109-.106.1-.092.1-.1l0,0A6.207,6.207,0,0,1,5.884,60.575ZM9.212,62.7a5.087,5.087,0,0,0-3.327-1.375A5.465,5.465,0,0,0,2.4,62.764h0l-.012.012-.007.007-.016.015h0A5.334,5.334,0,0,0,.753,66.582c.133,1.27.859,3.58,4.21,4.885a22.873,22.873,0,0,0,6.5.844,20.968,20.968,0,0,0-.762-7.339A6.716,6.716,0,0,0,9.212,62.7Z" transform="translate(-0.204 -33.167)" fill="#fff"/></g></svg>