<svg id="Layer_1" data-name="Layer 1" xmlns="http://www.w3.org/2000/svg" xmlns:xlink="http://www.w3.org/1999/xlink" viewBox="0 0 120 120"><defs><style>.cls-1{fill:#fff;}.cls-2{opacity:0.7;}.cls-3{fill:url(#linear-gradient);}.cls-4{isolation:isolate;}.cls-5{fill:#00b14f;}</style><linearGradient id="linear-gradient" x1="-135.61" y1="117.54" x2="-134.61" y2="117.54" gradientTransform="matrix(113.57, 0, 0, -113.57, 15404.86, 13409.16)" gradientUnits="userSpaceOnUse"><stop offset="0" stop-color="#fff"/><stop offset="0.13" stop-color="#fafafa"/><stop offset="0.28" stop-color="#ececec"/><stop offset="0.44" stop-color="#d4d4d4"/><stop offset="0.61" stop-color="#b3b3b3"/><stop offset="0.79" stop-color="#888"/><stop offset="0.97" stop-color="#555"/><stop offset="1" stop-color="#4b4b4b"/></linearGradient></defs><path id="Path_29649" data-name="Path 29649" class="cls-1" d="M84.27,48.26a3.57,3.57,0,1,1,1,2.53A3.56,3.56,0,0,1,84.27,48.26Zm11.48-3.37h3.1l-9.48,14.8h-3.1Zm-6.64,3.37a1.27,1.27,0,1,0-1.18,1.35,1.41,1.41,0,0,0,.57-.18,1.29,1.29,0,0,0,.61-1.17Zm4.56,8.14a3.55,3.55,0,1,1,1,2.55A3.58,3.58,0,0,1,93.67,56.4Zm4.81,0A1.26,1.26,0,1,0,96,56.15v.25a1.26,1.26,0,0,0,1.16,1.35,1.25,1.25,0,0,0,1.35-1.15A.67.67,0,0,0,98.48,56.4Z"/><g id="Group_10171" data-name="Group 10171" class="cls-2"><path id="Path_29644" data-name="Path 29644" class="cls-3" d="M60,9.32A50.67,50.67,0,1,1,9.34,60h0A50.67,50.67,0,0,1,60,9.32m0-6.1A56.79,56.79,0,1,0,116.79,60h0A56.8,56.8,0,0,0,60,3.21Z"/></g><g id="_90" data-name=" 90" class="cls-4"><g class="cls-4"><path class="cls-5" d="M48.56,57c0,5.76-3.21,12.34-11.42,22.95H29.07l-.14-.2c3.41-4.32,6.14-8,8.5-11.52a8.26,8.26,0,0,1-3.56.72c-5.8,0-10.8-4.46-10.8-11.56S27.73,44.7,35.84,44.7C43.09,44.7,48.56,49.6,48.56,57Zm-6.91-.19a5.48,5.48,0,0,0-5.76-5.71,5.69,5.69,0,0,0-6,5.9c0,3.55,2.45,5.67,6,5.67A5.51,5.51,0,0,0,41.65,56.85Z"/><path class="cls-5" d="M75.3,70.29c0,6.29-5.28,10.42-13.49,10.42a26.37,26.37,0,0,1-9-1.63V72.5l.14-.1a29.73,29.73,0,0,0,8.78,1.78c3.8,0,6.34-1.83,6.34-4.47S65.41,65.49,60,65.49H57.68V59.35H60c5,0,7.64-1.54,7.64-4.18,0-2.4-2.31-4-6-4a19.54,19.54,0,0,0-8.16,2.16l-.19-.14V46.62a23.1,23.1,0,0,1,8.88-1.92c7.64,0,12.58,3.8,12.58,9.65A7.72,7.72,0,0,1,69.63,62C73.57,63.71,75.3,66.64,75.3,70.29Z"/></g></g><path class="cls-5" d="M60,3.21h0v6.1h0A50.67,50.67,0,1,1,9.34,60h0A50.67,50.67,0,0,1,48,10.78L45.84,5a56.79,56.79,0,1,0,71,55h0A56.8,56.8,0,0,0,60,3.21Z"/></svg>