<svg id="Group_11209" data-name="Group 11209" xmlns="http://www.w3.org/2000/svg" xmlns:xlink="http://www.w3.org/1999/xlink" width="84.523" height="91.617" viewBox="0 0 84.523 91.617">
  <defs>
    <clipPath id="clip-path">
      <rect id="Rectangle_6336" data-name="Rectangle 6336" width="84.523" height="91.617" fill="none"/>
    </clipPath>
  </defs>
  <g id="Group_11208" data-name="Group 11208" clip-path="url(#clip-path)">
    <path id="Path_30456" data-name="Path 30456" d="M71.6,10.954,62.679.375,53.754,10.954h5.133V27.8a.7.7,0,0,0,.7.7h6.185a.7.7,0,0,0,.7-.7V10.954Z" transform="translate(-20.417 -0.142)" fill="none" stroke="#fff" stroke-linecap="round" stroke-linejoin="round" stroke-width="0.75"/>
    <path id="Path_30457" data-name="Path 30457" d="M114.041,26.606l-6.574-7.79-6.573,7.79h3.779V39.013a.516.516,0,0,0,.515.516h4.555a.515.515,0,0,0,.515-.516V26.606Z" transform="translate(-38.323 -7.147)" fill="none" stroke="#fff" stroke-linecap="round" stroke-linejoin="round" stroke-width="0.75"/>
    <path id="Path_30458" data-name="Path 30458" d="M27.346,26.606l-6.573-7.79L14.2,26.606h3.779V39.013a.517.517,0,0,0,.516.516H23.05a.515.515,0,0,0,.515-.516V26.606Z" transform="translate(-5.394 -7.147)" fill="none" stroke="#fff" stroke-linecap="round" stroke-linejoin="round" stroke-width="0.75"/>
    <path id="Path_30459" data-name="Path 30459" d="M76.2,101.555l-8.4-20.393a2.852,2.852,0,0,0-.416-.7,5.764,5.764,0,0,0-4.844-2.554h-15A5.764,5.764,0,0,0,42.7,80.465a2.892,2.892,0,0,0-.416.7l-8.4,20.393a2.877,2.877,0,0,0,1.654,3.844,3.166,3.166,0,0,0,3.965-1.782l6.245-15.179a5.308,5.308,0,0,0,.576.153L40.172,120.38v.6H69.918v-.6L63.763,88.591a5.4,5.4,0,0,0,.577-.153l6.244,15.179a3.166,3.166,0,0,0,3.965,1.782A2.877,2.877,0,0,0,76.2,101.555Z" transform="translate(-12.784 -29.593)" fill="none" stroke="#fff" stroke-linecap="round" stroke-linejoin="round" stroke-width="0.75"/>
    <path id="Path_30460" data-name="Path 30460" d="M94.571,105.229,94.034,108v.417h20.859V108L110.577,85.71a3.554,3.554,0,0,0,.4-.107l4.379,10.645a2.22,2.22,0,0,0,2.78,1.25A2.017,2.017,0,0,0,119.3,94.8l-5.889-14.3a2,2,0,0,0-.292-.489,4.042,4.042,0,0,0-3.4-1.792H99.2a4.041,4.041,0,0,0-3.4,1.792,1.993,1.993,0,0,0-.291.489L92.6,87.582" transform="translate(-35.172 -29.711)" fill="none" stroke="#fff" stroke-linecap="round" stroke-linejoin="round" stroke-width="0.75"/>
    <path id="Path_30461" data-name="Path 30461" d="M96.261,97.6l3.076-7.476a3.392,3.392,0,0,0,.4.108l-2.1,10.841" transform="translate(-36.563 -34.232)" fill="none" stroke="#fff" stroke-linecap="round" stroke-linejoin="round" stroke-width="0.75"/>
    <path id="Path_30462" data-name="Path 30462" d="M36.45,100.729l-2.032-10.5a3.433,3.433,0,0,0,.4-.108l3.105,7.549" transform="translate(-13.073 -34.232)" fill="none" stroke="#fff" stroke-linecap="round" stroke-linejoin="round" stroke-width="0.75"/>
    <path id="Path_30463" data-name="Path 30463" d="M27.146,87.358,24.322,80.5a2.022,2.022,0,0,0-.291-.489,4.044,4.044,0,0,0-3.4-1.791H10.114a4.043,4.043,0,0,0-3.4,1.791,2,2,0,0,0-.291.489L.538,94.8A2.017,2.017,0,0,0,1.7,97.5a2.221,2.221,0,0,0,2.781-1.25L8.857,85.6a3.481,3.481,0,0,0,.4.108L4.945,108v.418H25.8V108l-.564-2.914" transform="translate(-0.143 -29.711)" fill="none" stroke="#fff" stroke-linecap="round" stroke-linejoin="round" stroke-width="0.75"/>
    <path id="Path_30464" data-name="Path 30464" d="M70.163,57.049c-.28-6.5-7.573-6.414-7.573-6.414s-7.293-.086-7.573,6.414c0,0,.468,4.874-2.244,6.071,0,0,1.59,3.591,9.817,3.335,8.227.256,9.817-3.336,9.817-3.336-2.711-1.2-2.244-6.071-2.244-6.071M62.59,66.315a6.862,6.862,0,1,1,6.862-6.862,6.861,6.861,0,0,1-6.862,6.862" transform="translate(-20.045 -19.233)" fill="#fff"/>
    <path id="Path_30465" data-name="Path 30465" d="M64.9,53.4s-2.852,6.579-7.78,6.579c0,0,1.2-8.292,7.78-6.579" transform="translate(-21.697 -20.194)" fill="#fff"/>
    <path id="Path_30466" data-name="Path 30466" d="M67.538,53.4s2.853,6.579,7.78,6.579c0,0-1.2-8.292-7.78-6.579" transform="translate(-25.653 -20.194)" fill="#fff"/>
    <path id="Path_30467" data-name="Path 30467" d="M25.691,63.346c-.2-4.556-5.311-4.5-5.311-4.5s-5.114-.06-5.31,4.5c0,0,.327,3.418-1.574,4.259,0,0,1.114,2.518,6.884,2.339,5.77.179,6.885-2.34,6.885-2.34-1.9-.84-1.575-4.258-1.575-4.258m-5.311,6.5a4.812,4.812,0,1,1,4.812-4.813,4.812,4.812,0,0,1-4.812,4.813" transform="translate(-5.127 -22.353)" fill="#fff"/>
    <path id="Path_30468" data-name="Path 30468" d="M22,60.787S20,65.4,16.545,65.4c0,0,.843-5.815,5.457-4.613" transform="translate(-6.284 -23.027)" fill="#fff"/>
    <path id="Path_30469" data-name="Path 30469" d="M23.85,60.787s2,4.613,5.456,4.613c0,0-.843-5.815-5.456-4.613" transform="translate(-9.059 -23.027)" fill="#fff"/>
    <path id="Path_30470" data-name="Path 30470" d="M113.058,63.346c-.2-4.556-5.311-4.5-5.311-4.5s-5.114-.06-5.311,4.5c0,0,.328,3.418-1.574,4.259,0,0,1.115,2.518,6.884,2.339,5.769.179,6.884-2.34,6.884-2.34-1.9-.84-1.573-4.258-1.573-4.258m-5.311,6.5a4.812,4.812,0,1,1,4.811-4.813,4.812,4.812,0,0,1-4.811,4.813" transform="translate(-38.311 -22.353)" fill="#fff"/>
    <path id="Path_30471" data-name="Path 30471" d="M109.369,60.787s-2,4.613-5.456,4.613c0,0,.842-5.815,5.456-4.613" transform="translate(-39.469 -23.027)" fill="#fff"/>
    <path id="Path_30472" data-name="Path 30472" d="M111.217,60.787s2,4.613,5.456,4.613c0,0-.842-5.815-5.456-4.613" transform="translate(-42.244 -23.027)" fill="#fff"/>
  </g>
</svg>
