<svg id="a" xmlns="http://www.w3.org/2000/svg" xmlns:xlink="http://www.w3.org/1999/xlink" viewBox="0 0 114 120"><defs><style>.cls-1{fill:none;}.cls-2{fill:#fff;}.cls-3{opacity:0.7;}.cls-4{fill:url(#linear-gradient);}.cls-5{fill:#00b04f;}.cls-6{isolation:isolate;}.cls-7{fill:#00b14f;}</style><linearGradient id="linear-gradient" x1="3.18" y1="117.58" x2="4.18" y2="117.58" gradientTransform="matrix(113.57, 0, 0, -113.57, -361.22, 13413.73)" gradientUnits="userSpaceOnUse"><stop offset="0" stop-color="#fff"/><stop offset="0.13" stop-color="#fafafa"/><stop offset="0.28" stop-color="#ececec"/><stop offset="0.44" stop-color="#d4d4d4"/><stop offset="0.61" stop-color="#b3b3b3"/><stop offset="0.79" stop-color="#888"/><stop offset="0.97" stop-color="#555"/><stop offset="1" stop-color="#4b4b4b"/></linearGradient></defs><rect class="cls-1" x="0.01" y="-0.32" width="114" height="120"/><path id="Path_29649" data-name="Path 29649" class="cls-2" d="M81.27,48.26a3.57,3.57,0,1,1,1,2.53A3.56,3.56,0,0,1,81.27,48.26Zm11.48-3.37h3.1l-9.48,14.8h-3.1Zm-6.64,3.37a1.27,1.27,0,1,0-1.18,1.35,1.41,1.41,0,0,0,.57-.18,1.29,1.29,0,0,0,.61-1.17Zm4.56,8.14a3.55,3.55,0,1,1,1,2.55A3.58,3.58,0,0,1,90.67,56.4Zm4.81,0A1.26,1.26,0,1,0,93,56.15v.25a1.26,1.26,0,0,0,1.16,1.35,1.25,1.25,0,0,0,1.35-1.15A.67.67,0,0,0,95.48,56.4Z"/><g id="Group_10171" data-name="Group 10171" class="cls-3"><path id="Path_29644" data-name="Path 29644" class="cls-4" d="M57,9.32A50.67,50.67,0,1,1,6.34,60h0A50.67,50.67,0,0,1,57,9.32m0-6.1A56.79,56.79,0,1,0,113.79,60h0A56.8,56.8,0,0,0,57,3.21Z"/></g><path class="cls-5" d="M57,3.24V9.52a50.5,50.5,0,0,1,44.92,73.55l5.35,3.34A56.56,56.56,0,0,0,113.79,60h0A56.8,56.8,0,0,0,57,3.24Z"/><g id="_36" data-name=" 36" class="cls-6"><g class="cls-6"><path class="cls-7" d="M33.89,80.46a16.63,16.63,0,0,1-6.8-1.32,11.4,11.4,0,0,1-4.68-3.64,9.12,9.12,0,0,1-1.77-5.38h7.43a3.82,3.82,0,0,0,.85,2.24A4.94,4.94,0,0,0,31,73.85a7.66,7.66,0,0,0,2.91.53,7.06,7.06,0,0,0,3-.6,4.88,4.88,0,0,0,2-1.65,4.19,4.19,0,0,0,.74-2.44,4.13,4.13,0,0,0-.78-2.48,5,5,0,0,0-2.21-1.69,8.67,8.67,0,0,0-3.42-.62H30V59.48h3.26a7.11,7.11,0,0,0,3-.58,4.73,4.73,0,0,0,2-1.61,4.1,4.1,0,0,0,.71-2.41A4.15,4.15,0,0,0,36.55,51a5.63,5.63,0,0,0-2.6-.56,7,7,0,0,0-2.74.53,4.86,4.86,0,0,0-2,1.53,4,4,0,0,0-.81,2.32H21.34a9.08,9.08,0,0,1,1.72-5.32,11.24,11.24,0,0,1,4.51-3.6A15.19,15.19,0,0,1,34,44.6a14.41,14.41,0,0,1,6.32,1.31,10.56,10.56,0,0,1,4.22,3.54,8.57,8.57,0,0,1,1.49,5,6.84,6.84,0,0,1-1.81,4.89,8.42,8.42,0,0,1-4.77,2.49v.27a9.36,9.36,0,0,1,5.88,2.67,7.64,7.64,0,0,1,2,5.43,8.54,8.54,0,0,1-1.72,5.3,11.55,11.55,0,0,1-4.76,3.64A17.1,17.1,0,0,1,33.89,80.46Z"/><path class="cls-7" d="M66,80.46a15.73,15.73,0,0,1-5.19-.9,11.84,11.84,0,0,1-4.47-2.88,13.9,13.9,0,0,1-3.13-5.28,24.63,24.63,0,0,1-1.15-8.08,29,29,0,0,1,1-7.87A17.41,17.41,0,0,1,56,49.56a12.55,12.55,0,0,1,4.47-3.69,13.15,13.15,0,0,1,5.85-1.27A13.38,13.38,0,0,1,72.46,46a11.4,11.4,0,0,1,4.3,3.67,11.15,11.15,0,0,1,2,5.2H71.45A4.86,4.86,0,0,0,69.66,52a5.39,5.39,0,0,0-3.37-1,5.66,5.66,0,0,0-5.17,3A15.91,15.91,0,0,0,59.32,62h.24a8.25,8.25,0,0,1,2.12-2.65,9.74,9.74,0,0,1,3.05-1.68A10.86,10.86,0,0,1,68.35,57a10.32,10.32,0,0,1,9.34,5.45,11.86,11.86,0,0,1,1.4,5.81,12.14,12.14,0,0,1-1.64,6.31,11.52,11.52,0,0,1-4.59,4.32A14.13,14.13,0,0,1,66,80.46Zm0-5.79a5.75,5.75,0,0,0,5.16-3,6.77,6.77,0,0,0,0-6.25,5.81,5.81,0,0,0-2.09-2.2,5.59,5.59,0,0,0-3-.82,5.76,5.76,0,0,0-2.36.48,5.84,5.84,0,0,0-1.89,1.33,6.18,6.18,0,0,0-1.27,2,6.08,6.08,0,0,0-.46,2.38,6.31,6.31,0,0,0,.77,3.08A6.05,6.05,0,0,0,63,73.83,5.58,5.58,0,0,0,66,74.67Z"/></g></g></svg>