<svg xmlns="http://www.w3.org/2000/svg" xmlns:xlink="http://www.w3.org/1999/xlink" width="40" height="31.172" viewBox="0 0 40 31.172">
  <defs>
    <clipPath id="clip-path">
      <rect id="Rectangle_6474" data-name="Rectangle 6474" width="40" height="31.172" fill="none"/>
    </clipPath>
  </defs>
  <g id="Group_11594" data-name="Group 11594" clip-path="url(#clip-path)">
    <circle id="Ellipse_56" data-name="Ellipse 56" cx="3.625" cy="3.625" r="3.625" transform="translate(25.602 23.773)" fill="none" stroke="#fff" stroke-miterlimit="10" stroke-width="0.75"/>
    <path id="Path_30545" data-name="Path 30545" d="M69.969,66.908a1.562,1.562,0,1,1,1.563,1.562,1.562,1.562,0,0,1-1.563-1.562" transform="translate(-42.304 -39.509)" fill="#fff"/>
    <path id="Path_30546" data-name="Path 30546" d="M17.642,63.753a3.625,3.625,0,1,1,3.625,3.625A3.625,3.625,0,0,1,17.642,63.753Z" transform="translate(-10.667 -36.354)" fill="none" stroke="#fff" stroke-miterlimit="10" stroke-width="0.75"/>
    <path id="Path_30547" data-name="Path 30547" d="M22.861,66.908a1.562,1.562,0,1,1,1.563,1.562,1.563,1.563,0,0,1-1.563-1.562" transform="translate(-13.822 -39.509)" fill="#fff"/>
    <line id="Line_509" data-name="Line 509" x1="11.375" transform="translate(14.226 27.399)" fill="none" stroke="#fff" stroke-miterlimit="10" stroke-width="0.75"/>
    <path id="Path_30548" data-name="Path 30548" d="M7.015,48.718H.7s-.812-2.25.126-3.625V41.53S.7,39.9,1.889,39.717l3.786-.387s9.284-9.99,24.444.94c0,0,9.209-.553,9.959,5.01v2.187s-.125,1.313-1.251,1.313H33.266" transform="translate(-0.227 -21.256)" fill="none" stroke="#fff" stroke-miterlimit="10" stroke-width="0.75"/>
    <path id="Path_30549" data-name="Path 30549" d="M95.8,54.489H92.733V50.8s3.084,1.4,3.062,3.688" transform="translate(-56.068 -30.715)" fill="#fff"/>
    <path id="Path_30550" data-name="Path 30550" d="M1.582,53.014H3.456v2.876H1.519" transform="translate(-0.918 -32.053)" fill="#fff"/>
    <path id="Path_30551" data-name="Path 30551" d="M19.855,43.677V45.49h7.751V40.677a11.828,11.828,0,0,0-7.751,3" transform="translate(-12.005 -24.591)" fill="#fff"/>
    <path id="Path_30552" data-name="Path 30552" d="M43.252,40.684V45.5H55s-6.063-4.813-11.75-4.813" transform="translate(-26.151 -24.598)" fill="#fff"/>
    <path id="Path_30553" data-name="Path 30553" d="M17.267,7.674c5.05,2.675,7.646,4.759,8.29,10.882" transform="translate(-10.44 -4.64)" fill="none" stroke="#fff" stroke-miterlimit="10" stroke-width="0.75"/>
    <path id="Path_30554" data-name="Path 30554" d="M22.463,12.234s3.327-.362,2.359-3.292" transform="translate(-13.581 -5.407)" fill="none" stroke="#fff" stroke-miterlimit="10" stroke-width="0.75"/>
    <path id="Path_30555" data-name="Path 30555" d="M12.156,7.541a6.352,6.352,0,0,0,1.659,2.02,4.758,4.758,0,0,0,6.573-.772l-.056.067s.028-.03.074-.086.079-.094.079-.094l-.059.07A5.187,5.187,0,0,0,21.586,4.91c-.264-1.265-1.206-3.369-4.5-4.253A21.151,21.151,0,0,0,10.726.562,19.584,19.584,0,0,0,12.156,7.541Z" transform="translate(-6.485 -0.227)" fill="none" stroke="#fff" stroke-miterlimit="10" stroke-width="0.75"/>
    <path id="Path_30556" data-name="Path 30556" d="M58.748,8.868C53.7,11.543,51.1,13.627,50.458,19.75" transform="translate(-30.508 -5.362)" fill="none" stroke="#fff" stroke-miterlimit="10" stroke-width="0.75"/>
    <path id="Path_30557" data-name="Path 30557" d="M62.353,13.427s-3.327-.362-2.359-3.292" transform="translate(-36.166 -6.128)" fill="none" stroke="#fff" stroke-miterlimit="10" stroke-width="0.75"/>
    <path id="Path_30558" data-name="Path 30558" d="M59.861,8.735A6.368,6.368,0,0,1,58.2,10.756a4.761,4.761,0,0,1-6.574-.773l.057.067s-.028-.03-.074-.086-.079-.094-.079-.094l.059.069A5.187,5.187,0,0,1,50.43,6.1c.264-1.265,1.206-3.369,4.5-4.253a21.148,21.148,0,0,1,6.358-.095A19.589,19.589,0,0,1,59.861,8.735Z" transform="translate(-30.464 -0.949)" fill="none" stroke="#fff" stroke-miterlimit="10" stroke-width="0.75"/>
  </g>
</svg>
