<svg id="Group_10525" data-name="Group 10525" xmlns="http://www.w3.org/2000/svg" xmlns:xlink="http://www.w3.org/1999/xlink" width="107.193" height="114.849" viewBox="0 0 107.193 114.849">
  <defs>
    <clipPath id="clip-path">
      <rect id="Rectangle_6014" data-name="Rectangle 6014" width="107.193" height="114.849" fill="none"/>
    </clipPath>
  </defs>
  <g id="Group_10527" data-name="Group 10527">
    <g id="Group_10526" data-name="Group 10526" clip-path="url(#clip-path)">
      <path id="Path_29808" data-name="Path 29808" d="M4.4,107.384H28.138a.507.507,0,0,0,.574-.574V50.725a.507.507,0,0,0-.574-.574H4.4a.507.507,0,0,0-.574.574V107c0,.192.192.383.574.383ZM4.978,51.3H27.564v55.128H4.978ZM41.73,61.636a.507.507,0,0,0-.574.574v44.6a.507.507,0,0,0,.574.574H65.466a.507.507,0,0,0,.574-.574V62.21a.507.507,0,0,0-.574-.574Zm23.161,44.6H42.3V62.785H64.89ZM78.482,35.029V107a.507.507,0,0,0,.574.574h23.736a.507.507,0,0,0,.574-.574V35.029a.507.507,0,0,0-.574-.574H79.055a.507.507,0,0,0-.574.574m1.148.574h22.586v70.633H79.63ZM53.214,54.936,15.888,31.392l.574-.957L53.405,53.6,89.2,1.532,84.415,2.68l-.191-1.148L91.115,0l1.148,6.891-1.148.191L90.35,2.3,54.172,54.745a.7.7,0,0,1-.574.191h-.384Zm53.98,59.913H0V113.7H107.193Z" fill="#fff"/>
    </g>
  </g>
</svg>
