<svg xmlns="http://www.w3.org/2000/svg" width="60.002" height="59.999" viewBox="0 0 60.002 59.999">
  <path id="linkedin" d="M14731,3425a29.912,29.912,0,1,1,11.679-2.358A29.808,29.808,0,0,1,14731,3425Zm-13.721-46a2.3,2.3,0,0,0-2.278,2.308v27.384a2.3,2.3,0,0,0,2.278,2.308h27.436a2.3,2.3,0,0,0,2.285-2.308v-27.384a2.3,2.3,0,0,0-2.285-2.308Zm15.114,27.429h-4.742v-15.27h4.55v2.086h.063a4.541,4.541,0,0,1,1.62-1.684,5.453,5.453,0,0,1,2.873-.784c5,0,5.694,3.5,5.694,7.279v8.371h-4.745V3399c0-1.71,0-4.053-2.464-4.053-2.51,0-2.849,1.983-2.849,3.923v7.557Zm-7.713,0h-4.753v-15.27h4.753v15.269Zm-2.382-17.356a2.751,2.751,0,1,1,2.752-2.752A2.754,2.754,0,0,1,14722.3,3389.073Z" transform="translate(-14701.001 -3365.001)" fill="#0e76a8"/>
</svg>
