<svg xmlns="http://www.w3.org/2000/svg" width="60" height="60" viewBox="0 0 60 60">
  <path id="copy-link" d="M15024,4272a29.914,29.914,0,1,1,11.678-2.357A29.788,29.788,0,0,1,15024,4272Zm-1.814-34.624c-.186,0-.371.006-.551.021a8.14,8.14,0,0,0-1.154.18,1.509,1.509,0,0,0-.168.042l-.01,0-.025.007-.039.009a7.7,7.7,0,0,0-1.4.523,7.526,7.526,0,0,0-1.992,1.425l-4.723,4.729a7.559,7.559,0,0,0,10.7,10.684l4.492-4.5a1.388,1.388,0,0,0,.3-1.529,1.4,1.4,0,0,0-1.289-.859,1.354,1.354,0,0,0-.137,0l-.088.009a1.444,1.444,0,0,0-.846.4l-4.449,4.445a4.7,4.7,0,0,1-6.65-6.644l4.725-4.724a4.875,4.875,0,0,1,.732-.6,4.448,4.448,0,0,1,.957-.486,4.385,4.385,0,0,1,.973-.236,4.116,4.116,0,0,1,.654-.047c.061,0,.119,0,.193.007h.039l.064,0a4.635,4.635,0,0,1,4.121,3.114,1.417,1.417,0,0,0,1.322.954,1.218,1.218,0,0,0,.377-.057.076.076,0,0,0,.033-.009.257.257,0,0,0,.07-.029,1.394,1.394,0,0,0,.883-1.675,6.522,6.522,0,0,0-1.775-2.963,7.577,7.577,0,0,0-4.139-2.1l-.129-.02-.012,0c-.086-.013-.172-.026-.264-.035A7.176,7.176,0,0,0,15022.186,4237.375Zm-.941,3.6a1.545,1.545,0,0,0-.359.048,1.437,1.437,0,0,0-.887.688,1.415,1.415,0,0,0-.107,1.123,6.533,6.533,0,0,0,1.7,2.7l.014.015a7.577,7.577,0,0,0,4.543,2.166c.281.026.541.038.795.038.215,0,.4-.006.566-.019a7.9,7.9,0,0,0,1.387-.231,7.509,7.509,0,0,0,1.4-.523,7.419,7.419,0,0,0,1.986-1.43l4.725-4.723a7.558,7.558,0,0,0-10.693-10.684l-4.383,4.383a1.42,1.42,0,0,0,.891,2.421h.055l.064,0a1.438,1.438,0,0,0,1-.41l4.393-4.384a4.7,4.7,0,0,1,6.648,6.653l-4.723,4.724a5.112,5.112,0,0,1-.732.6,5.167,5.167,0,0,1-.961.487,5,5,0,0,1-.963.235,4.86,4.86,0,0,1-.66.047,2.615,2.615,0,0,1-.262-.014h-.037a4.6,4.6,0,0,1-4.076-3A1.407,1.407,0,0,0,15021.244,4240.973Z" transform="translate(-14994.002 -4212)" fill="#383e43"/>
</svg>
