<svg xmlns="http://www.w3.org/2000/svg" xmlns:xlink="http://www.w3.org/1999/xlink" width="68.347" height="70" viewBox="0 0 68.347 70">
  <defs>
    <linearGradient id="linear-gradient" y1="0.5" x2="1" y2="0.5" gradientUnits="objectBoundingBox">
      <stop offset="0" stop-color="#fff"/>
      <stop offset="0.13" stop-color="#fafafa"/>
      <stop offset="0.28" stop-color="#ececec"/>
      <stop offset="0.44" stop-color="#d4d4d4"/>
      <stop offset="0.61" stop-color="#b3b3b3"/>
      <stop offset="0.79" stop-color="#888"/>
      <stop offset="0.97" stop-color="#555"/>
      <stop offset="1" stop-color="#4b4b4b"/>
    </linearGradient>
    <clipPath id="clip-path">
      <path id="Path_29646" data-name="Path 29646" d="M128.973,82.643,78.362,25.533l-8.353,7.453-6.64,18.18V64.8l6.64,16.317,9.02,8.643,26.827,1.934L117.9,88.329,131.715,67.8V36.14L114.729,24.215,97.914,21.692V46.4" transform="translate(-63.369 -21.692)" fill="none"/>
    </clipPath>
  </defs>
  <g id="Group_10736" data-name="Group 10736" transform="translate(-1323.414 -558.334)">
    <g id="Group_10713" data-name="Group 10713" transform="translate(1323.414 558.334)">
      <path id="Path_29649" data-name="Path 29649" d="M128.39,87.78a2.177,2.177,0,1,1,.633,1.552A2.188,2.188,0,0,1,128.39,87.78Zm7.029-2.063h1.9l-5.807,9.067h-1.9Zm-4.069,2.063a.777.777,0,1,0-.371.716A.777.777,0,0,0,131.351,87.78Zm2.8,4.988a2.17,2.17,0,1,1,.63,1.565,2.184,2.184,0,0,1-.63-1.565Zm2.946,0a.772.772,0,1,0-1.536,0,.77.77,0,1,0,1.536,0Z" transform="translate(-81.963 -60.954)" fill="#ffffff"/>
      <g id="Group_10171" data-name="Group 10171" transform="translate(0.757 1.092)" opacity="0.7">
        <path id="Path_29644" data-name="Path 29644" d="M62.909,28.722A30.135,30.135,0,1,1,32.753,58.857,30.145,30.145,0,0,1,62.909,28.722m0-3.632A33.771,33.771,0,1,0,96.7,58.858,33.784,33.784,0,0,0,62.909,25.09Z" transform="translate(-29.11 -25.09)" fill="url(#linear-gradient)"/>
      </g>
      <g id="Group_10172" data-name="Group 10172" transform="translate(0 0)" clip-path="url(#clip-path)">
        <path id="Path_29645" data-name="Path 29645" d="M62.92,28.871A30.06,30.06,0,1,1,32.86,58.915,30.06,30.06,0,0,1,62.92,28.871m0-3.741a33.806,33.806,0,1,0,33.8,33.8,33.807,33.807,0,0,0-33.8-33.8Z" transform="translate(-28.375 -24.052)" fill="#00b04f"/>
      </g>
    </g>
    <text id="_80" data-name="80" transform="translate(1335.719 601.524)" fill="#00b14f" font-size="24" font-family="Inter-Bold, Inter" font-weight="700"><tspan x="0" y="0">80</tspan></text>
  </g>
</svg>
