<svg xmlns="http://www.w3.org/2000/svg" width="20" height="20" viewBox="0 0 20 20">
  <g id="Icon_feather-download" data-name="Icon feather-download" transform="translate(-3.501 -3.5)">
    <path id="Union_15" data-name="Union 15" d="M-6799.5,6237.5a3.041,3.041,0,0,1-3-3.075v-4.15a1,1,0,0,1,1-1,1,1,0,0,1,1,1v4.15a1.04,1.04,0,0,0,1,1.074h14a1.04,1.04,0,0,0,1-1.074v-4.15a1,1,0,0,1,1-1,1,1,0,0,1,1,1v4.15a3.042,3.042,0,0,1-3,3.075Zm6.119-5.231-4.851-5.187a1,1,0,0,1,.048-1.414,1,1,0,0,1,1.414.048l3.27,3.5V6218.5a1,1,0,0,1,1-1,1,1,0,0,1,1,1v10.394l2.974-3.177a1,1,0,0,1,1.414-.048,1,1,0,0,1,.044,1.414l-4.851,5.187a1,1,0,0,1-.73.318A1,1,0,0,1-6793.381,6232.27Z" transform="translate(6806 -6214)"/>
  </g>
</svg>
