<svg xmlns="http://www.w3.org/2000/svg" width="47.135" height="45" viewBox="0 0 47.135 45">
  <path id="Path_29570" data-name="Path 29570" d="M79.1,50.516a1.759,1.759,0,0,0-1.429-1.2l-14.14-2.055L57.2,34.444a1.77,1.77,0,0,0-3.174,0L47.705,47.257,33.566,49.311a1.77,1.77,0,0,0-.981,3.019L42.817,62.3,40.4,76.387a1.77,1.77,0,0,0,2.567,1.865L55.616,71.6l12.648,6.649a1.77,1.77,0,0,0,2.568-1.866L68.416,62.3,78.648,52.33a1.758,1.758,0,0,0,.448-1.815" transform="translate(-32.049 -33.458)" fill="#fff"/>
</svg>
