<svg xmlns="http://www.w3.org/2000/svg" width="60.002" height="60" viewBox="0 0 60.002 60">
  <g id="twitter" transform="translate(0.002)">
    <path id="Subtraction_1" data-name="Subtraction 1" d="M30,60A30.007,30.007,0,0,1,18.324,2.357,30.008,30.008,0,0,1,41.678,57.643,29.82,29.82,0,0,1,30,60ZM15,40.91h0a18.844,18.844,0,0,0,9.969,2.839,19.208,19.208,0,0,0,7.939-1.634,17.472,17.472,0,0,0,5.8-4.22A18.277,18.277,0,0,0,43.475,25.79l-.02-.819A12.749,12.749,0,0,0,46.7,21.708a13.411,13.411,0,0,1-3.734,1,6.36,6.36,0,0,0,2.859-3.494,13.286,13.286,0,0,1-4.131,1.532,6.626,6.626,0,0,0-4.748-1.994,6.415,6.415,0,0,0-6.5,6.311,6.226,6.226,0,0,0,.166,1.438,18.693,18.693,0,0,1-13.4-6.593,6.132,6.132,0,0,0-.883,3.169,6.254,6.254,0,0,0,2.891,5.256,6.723,6.723,0,0,1-2.943-.791v.078a6.383,6.383,0,0,0,5.215,6.191,6.749,6.749,0,0,1-1.713.222,6.586,6.586,0,0,1-1.221-.116A6.474,6.474,0,0,0,24.633,38.3,13.243,13.243,0,0,1,16.555,41,13.109,13.109,0,0,1,15,40.91Z" transform="translate(-0.002)" fill="#00acee"/>
  </g>
</svg>
