<svg id="Layer_1" data-name="Layer 1" xmlns="http://www.w3.org/2000/svg" viewBox="0 0 166 166"><defs><style>.cls-1{fill:#fff;}</style></defs><path class="cls-1" d="M155.27,64.59h0a6,6,0,0,0-7.77,2.85,5.91,5.91,0,0,0-.49.93,4.83,4.83,0,0,0,4,7.16,5.94,5.94,0,0,0,7.45-4.62A5.32,5.32,0,0,0,155.27,64.59Z"/><path class="cls-1" d="M68,54.86a6.39,6.39,0,0,0,4.26.92,6.25,6.25,0,0,0,5-4.78h0a5.34,5.34,0,0,0-3.18-6.31,6,6,0,0,0-7.76,2.85,5.07,5.07,0,0,0-.06,5.66A5.69,5.69,0,0,0,68,54.86Zm.66-3.1-.09-.1c-.06-.1-.09-.22-.14-.32A2.91,2.91,0,0,0,68.68,51.76Z"/><path class="cls-1" d="M141.9,45.29,126.43,55.83a7.23,7.23,0,0,0-3.15-1.89,5.57,5.57,0,0,0-4.71.7L105,63.87q-1.45-1.74-3-3.37A11.69,11.69,0,0,0,87,59L32.19,96.26a11.81,11.81,0,0,0-3.85,15c.41.81.84,1.62,1.27,2.43l-12.49,8.51a47,47,0,0,0-3.87-4.11c-3.31-3.06-5.67-4-7.27-2.94H6c-4.53,3.08,5.44,18,6.59,19.7a64.22,64.22,0,0,0,8.64,10.41,20.15,20.15,0,0,0,2.95,2.33c1.82,1.14,3.24,1.33,4.32.6,2.66-1.81.32-7.69-2.29-12.58l12.53-8.54c.59.7,1.19,1.39,1.81,2.08a11.82,11.82,0,0,0,15.38,1.91l10.65-7.25.08-.06,10.19-6.94,11.94-8.14,12-8.13,10-6.82a11.69,11.69,0,0,0,4.09-14.53c-.64-1.41-1.35-2.79-2.09-4.16l13.5-9.19a5.56,5.56,0,0,0,2.37-4.13,7.06,7.06,0,0,0-.61-3.62l15.48-10.54.14-.09a1.39,1.39,0,0,0-1.71-2.2ZM24.83,133.2l-2.29,1.56-.94.64a1.41,1.41,0,0,0-.37,1.93,1.38,1.38,0,0,0,.41.39,1.36,1.36,0,0,0,1.52,0l.72-.48c2.36,4.52,3.23,7.66,3,8.65-1.46-.21-6.38-4.31-12-12.55h0C9.26,125.05,7.24,119,7.58,117.54c1,.13,3.76,2.19,7.23,6.25l-.76.51a1.38,1.38,0,0,0,0,2.32,1.36,1.36,0,0,0,1.52,0l1-.64,2.3-1.58L31,116.14a81.78,81.78,0,0,0,6,8.78Zm84.33-41.75-8.87,6-2.9-4.26a1.39,1.39,0,0,0-2.29,1.56L98,99l-9.65,6.58-2.9-4.26a1.39,1.39,0,0,0-2.29,1.57l2.9,4.26-9.66,6.57L73.5,109.5a1.39,1.39,0,0,0-1.84-.34,1.37,1.37,0,0,0-.45,1.91l2.89,4.26-8.78,6a11,11,0,0,1-7.17-2.83,25.71,25.71,0,0,1-9.86-16.64,17.84,17.84,0,0,0-3.76-10.45l0-.15,44-30A8.92,8.92,0,0,1,100,62.44a64.46,64.46,0,0,1,9.71,12.92l0,.06,0,0q1.36,2.41,2.52,4.93A8.92,8.92,0,0,1,109.16,91.45Zm15.5-27.88-13.32,9.07A67,67,0,0,0,106.78,66l13.36-9.1a2.82,2.82,0,0,1,2.4-.31,4.74,4.74,0,0,1,3.29,4.84A2.82,2.82,0,0,1,124.66,63.57Z"/><path class="cls-1" d="M83.85,38.26a9.24,9.24,0,0,0,4.68,1.37,10.18,10.18,0,0,0,7.1-1.37,11.74,11.74,0,0,0,5.5-10.17A10.55,10.55,0,0,0,95.07,19c-6.84-3.64-12.26-.87-14.6,3.5a11.84,11.84,0,0,0-1,8.75A9.48,9.48,0,0,0,83.85,38.26Z"/><path class="cls-1" d="M161,39.36a5.33,5.33,0,0,0-3.19-6.2A6,6,0,0,0,150.09,36a5.09,5.09,0,0,0-.07,5.67,5.85,5.85,0,0,0,1.76,1.67,6.3,6.3,0,0,0,4.26.91A6.13,6.13,0,0,0,158.79,43,4.86,4.86,0,0,0,161,39.36Z"/></svg>