<svg id="Group_10481" data-name="Group 10481" xmlns="http://www.w3.org/2000/svg" xmlns:xlink="http://www.w3.org/1999/xlink" width="84.524" height="80" viewBox="0 0 84.524 80">
  <defs>
    <clipPath id="clip-path">
      <rect id="Rectangle_5978" data-name="Rectangle 5978" width="84.524" height="80" fill="none"/>
    </clipPath>
  </defs>
  <g id="Group_10480" data-name="Group 10480" clip-path="url(#clip-path)">
    <path id="Path_29784" data-name="Path 29784" d="M84.242,74.219h-5.2V42.534h3.559a.283.283,0,0,0,.283-.283V35.732a.283.283,0,0,0-.283-.283H76.179L57.21,22.913a.285.285,0,0,0-.3-.008L46.3,29.092v-14.5H65.574a.283.283,0,0,0,.283-.283V4.518a.283.283,0,0,0-.283-.283H46.3V1.675a.283.283,0,0,0-.283-.283h-4.31a.283.283,0,0,0-.283.283V31.934L35.755,35.24V11.091c0-.011-.01-.016-.011-.027a.257.257,0,0,0-.041-.1.262.262,0,0,0-.057-.087c-.008-.007-.008-.018-.016-.025L19.488.048a.283.283,0,0,0-.315,0L3.033,10.855c-.009.006-.009.018-.016.025a.262.262,0,0,0-.057.087.257.257,0,0,0-.041.1c0,.01-.011.016-.011.027V74.22H.283A.283.283,0,0,0,0,74.5v5.215A.283.283,0,0,0,.283,80H84.241a.283.283,0,0,0,.283-.283V74.5a.282.282,0,0,0-.282-.283ZM46.3,4.8H65.29v9.222H46.3Zm-4.31-2.842h3.743V29.422L41.991,31.6ZM57.044,23.481,75.151,35.448H36.518ZM35.754,36.014H82.323v5.954H35.754Zm0,6.519H78.48V74.218H35.754ZM19.33.623,34.539,10.808H4.122ZM3.473,11.374H35.188V74.217H27.73V54.046a.283.283,0,0,0-.283-.283H11.216a.283.283,0,0,0-.283.283V74.217H3.473Zm23.69,62.844h-7.55V54.33h7.55Zm-8.115,0H11.5V54.33h7.549Zm64.911,5.216H.566V74.785H83.96Z" transform="translate(0 0)" fill="#fff"/>
    <path id="Path_29785" data-name="Path 29785" d="M60.381,111.063h5.671a.283.283,0,0,0,.283-.283v-4.857a.283.283,0,0,0-.283-.283H60.381a.283.283,0,0,0-.283.283v4.857A.282.282,0,0,0,60.381,111.063Zm.283-4.857h5.105V110.5H60.664Z" transform="translate(-49.164 -86.42)" fill="#fff"/>
    <path id="Path_29786" data-name="Path 29786" d="M118.412,111.063h5.671a.283.283,0,0,0,.283-.283v-4.857a.283.283,0,0,0-.283-.283h-5.671a.283.283,0,0,0-.283.283v4.857A.283.283,0,0,0,118.412,111.063Zm.283-4.857H123.8V110.5h-5.105Z" transform="translate(-96.637 -86.42)" fill="#fff"/>
    <path id="Path_29787" data-name="Path 29787" d="M60.381,166.933h5.671a.283.283,0,0,0,.283-.283v-4.857a.283.283,0,0,0-.283-.283H60.381a.283.283,0,0,0-.283.283v4.857a.282.282,0,0,0,.283.283m.283-4.857h5.105v4.291H60.664Z" transform="translate(-49.164 -132.125)" fill="#fff"/>
    <path id="Path_29788" data-name="Path 29788" d="M118.412,166.933h5.671a.283.283,0,0,0,.283-.283v-4.857a.283.283,0,0,0-.283-.283h-5.671a.283.283,0,0,0-.283.283v4.857A.283.283,0,0,0,118.412,166.933Zm.283-4.857H123.8v4.291h-5.105Z" transform="translate(-96.637 -132.125)" fill="#fff"/>
    <path id="Path_29789" data-name="Path 29789" d="M60.381,224.943h5.671a.283.283,0,0,0,.283-.283V219.8a.283.283,0,0,0-.283-.283H60.381a.283.283,0,0,0-.283.283v4.857a.282.282,0,0,0,.283.283m.283-4.856h5.105v4.29H60.664Z" transform="translate(-49.164 -179.581)" fill="#fff"/>
    <path id="Path_29790" data-name="Path 29790" d="M118.412,224.943h5.671a.283.283,0,0,0,.283-.283V219.8a.283.283,0,0,0-.283-.283h-5.671a.283.283,0,0,0-.283.283v4.857A.283.283,0,0,0,118.412,224.943Zm.283-4.856H123.8v4.29h-5.105Z" transform="translate(-96.637 -179.581)" fill="#fff"/>
    <path id="Path_29791" data-name="Path 29791" d="M261.495,274.014H232.421a.283.283,0,0,0-.283.283v6.593a.283.283,0,0,0,.283.283h29.074a.283.283,0,0,0,.283-.283V274.3a.284.284,0,0,0-.283-.283Zm-.283,6.593H232.7V274.58h28.508Z" transform="translate(-189.903 -224.16)" fill="#fff"/>
    <path id="Path_29792" data-name="Path 29792" d="M261.495,339.394H232.421a.283.283,0,0,0-.283.283v6.593a.283.283,0,0,0,.283.283h29.074a.283.283,0,0,0,.283-.283v-6.593a.284.284,0,0,0-.283-.283Zm-.283,6.594H232.7V339.96h28.508Z" transform="translate(-189.903 -277.645)" fill="#fff"/>
  </g>
</svg>
