<svg xmlns="http://www.w3.org/2000/svg" xmlns:xlink="http://www.w3.org/1999/xlink" width="73.809" height="67.39" viewBox="0 0 73.809 67.39">
  <defs>
    <clipPath id="clip-path">
      <rect id="Rectangle_6234" data-name="Rectangle 6234" width="73.809" height="67.39" fill="none"/>
    </clipPath>
  </defs>
  <g id="Group_10989" data-name="Group 10989" clip-path="url(#clip-path)">
    <path id="Path_30117" data-name="Path 30117" d="M67.472,82.245a6.421,6.421,0,1,1,6.422,6.422A6.423,6.423,0,0,1,67.472,82.245Z" transform="translate(-19.173 -21.545)" fill="none" stroke="#fff" stroke-miterlimit="10" stroke-width="0.75"/>
    <path id="Path_30118" data-name="Path 30118" d="M72.577,83.7a2.767,2.767,0,1,1,2.768,2.767A2.767,2.767,0,0,1,72.577,83.7" transform="translate(-20.624 -22.997)" fill="#fff"/>
    <path id="Path_30119" data-name="Path 30119" d="M21.384,82.245a6.422,6.422,0,1,1,6.422,6.422A6.423,6.423,0,0,1,21.384,82.245Z" transform="translate(-6.077 -21.545)" fill="none" stroke="#fff" stroke-miterlimit="10" stroke-width="0.75"/>
    <path id="Path_30120" data-name="Path 30120" d="M26.489,83.7a2.767,2.767,0,1,1,2.767,2.767A2.766,2.766,0,0,1,26.489,83.7" transform="translate(-7.527 -22.997)" fill="#fff"/>
    <line id="Line_429" data-name="Line 429" x1="20.148" transform="translate(28.151 60.7)" fill="none" stroke="#fff" stroke-miterlimit="10" stroke-width="0.75"/>
    <path id="Path_30121" data-name="Path 30121" d="M34.771,52c7.468-2,17.582-1.317,31.009,8.364,0,0,16.313-.981,17.64,8.874v3.874s-.221,2.325-2.213,2.325H71.354" transform="translate(-9.881 -14.517)" fill="none" stroke="#fff" stroke-miterlimit="10" stroke-width="0.75"/>
    <path id="Path_30122" data-name="Path 30122" d="M16.25,78.6H5.067s-1.437-3.986.223-6.422V65.864s-.223-2.879,1.882-3.211l.619-.063" transform="translate(-1.276 -17.785)" fill="none" stroke="#fff" stroke-miterlimit="10" stroke-width="0.75"/>
    <path id="Path_30123" data-name="Path 30123" d="M100.274,73.231H94.849V66.7s5.464,2.485,5.425,6.532" transform="translate(-26.953 -18.953)" fill="#fff"/>
    <path id="Path_30124" data-name="Path 30124" d="M5.72,68.863H9.04v5.093H5.608" transform="translate(-1.593 -19.568)" fill="#fff"/>
    <path id="Path_30125" data-name="Path 30125" d="M23.549,62.112v3.21h13.73V56.8a20.951,20.951,0,0,0-13.73,5.316" transform="translate(-6.692 -16.137)" fill="#fff"/>
    <path id="Path_30126" data-name="Path 30126" d="M46.438,56.8v8.526H67.252S56.513,56.8,46.438,56.8" transform="translate(-13.196 -16.14)" fill="#fff"/>
    <path id="Path_30127" data-name="Path 30127" d="M41.4,9.157V5.435a5.06,5.06,0,1,1,10.119,0V9.157" transform="translate(-11.765 -0.106)" fill="none" stroke="#fff" stroke-miterlimit="10" stroke-width="0.75"/>
    <path id="Path_30128" data-name="Path 30128" d="M31.277,26.81V12.047H55.891V41.269" transform="translate(-8.888 -3.423)" fill="none" stroke="#fff" stroke-miterlimit="10" stroke-width="0.75"/>
    <path id="Path_30129" data-name="Path 30129" d="M41.994,16.567a.865.865,0,1,1-.864-.864A.865.865,0,0,1,41.994,16.567Z" transform="translate(-11.442 -4.462)" fill="none" stroke="#fff" stroke-miterlimit="10" stroke-width="0.75"/>
    <path id="Path_30130" data-name="Path 30130" d="M55.99,16.567a.865.865,0,1,1-.865-.864A.865.865,0,0,1,55.99,16.567Z" transform="translate(-15.419 -4.462)" fill="none" stroke="#fff" stroke-miterlimit="10" stroke-width="0.75"/>
    <path id="Path_30131" data-name="Path 30131" d="M12.536,28.445A12.536,12.536,0,1,0,25.071,40.982,12.537,12.537,0,0,0,12.536,28.445M19.844,38.9a15.216,15.216,0,0,1-.68,2.419,17.584,17.584,0,0,1-2.154,4.018,20.716,20.716,0,0,1-2.425,2.827,18.422,18.422,0,0,1-1.757,1.523.647.647,0,0,1-.712,0,18.26,18.26,0,0,1-1.757-1.523,20.722,20.722,0,0,1-2.425-2.827,17.525,17.525,0,0,1-2.153-4.018A15.219,15.219,0,0,1,5.1,38.9a14.459,14.459,0,0,1-.258-2.673.267.267,0,0,1,.107-.21.55.55,0,0,1,.271-.117,24.875,24.875,0,0,0,3.152-.747,13.879,13.879,0,0,0,3.87-1.732.426.426,0,0,1,.46,0,13.893,13.893,0,0,0,3.869,1.732,24.88,24.88,0,0,0,3.153.747.556.556,0,0,1,.272.117.271.271,0,0,1,.107.21,14.521,14.521,0,0,1-.258,2.673" transform="translate(0 -8.083)" fill="#fff"/>
  </g>
</svg>
