<svg xmlns="http://www.w3.org/2000/svg" xmlns:xlink="http://www.w3.org/1999/xlink" width="70.773" height="50.389" viewBox="0 0 70.773 50.389">
  <defs>
    <clipPath id="clip-path">
      <rect id="Rectangle_6233" data-name="Rectangle 6233" width="70.773" height="50.389" fill="none"/>
    </clipPath>
  </defs>
  <g id="Group_10988" data-name="Group 10988" clip-path="url(#clip-path)">
    <path id="Path_30108" data-name="Path 30108" d="M15.961,75.173a5.776,5.776,0,1,1,5.775,5.777,5.777,5.777,0,0,1-5.775-5.777" transform="translate(-9.844 -42.802)" fill="#fff"/>
    <path id="Path_30109" data-name="Path 30109" d="M23.87,111.457V105.93a6.683,6.683,0,0,0-6.683-6.684H7.061A6.684,6.684,0,0,0,.375,105.93v5.527Z" transform="translate(-0.231 -61.213)" fill="none" stroke="#fff" stroke-miterlimit="10" stroke-width="0.75"/>
    <path id="Path_30110" data-name="Path 30110" d="M77.27,75.173a5.775,5.775,0,1,1,5.775,5.777,5.776,5.776,0,0,1-5.775-5.777" transform="translate(-47.658 -42.802)" fill="#fff"/>
    <path id="Path_30111" data-name="Path 30111" d="M85.179,111.457V105.93a6.684,6.684,0,0,0-6.685-6.684H68.37a6.685,6.685,0,0,0-6.686,6.684v5.527Z" transform="translate(-38.045 -61.213)" fill="none" stroke="#fff" stroke-miterlimit="10" stroke-width="0.75"/>
    <path id="Path_30112" data-name="Path 30112" d="M80.812,4.419A4.418,4.418,0,1,1,85.23,8.836a4.419,4.419,0,0,1-4.418-4.417" transform="translate(-49.843)" fill="#fff"/>
    <path id="Path_30113" data-name="Path 30113" d="M86.864,32.172V27.944a5.113,5.113,0,0,0-5.113-5.113H74.006a5.112,5.112,0,0,0-5.113,5.113v4.228Z" transform="translate(-42.492 -14.082)" fill="none" stroke="#fff" stroke-miterlimit="10" stroke-width="0.75"/>
    <path id="Path_30114" data-name="Path 30114" d="M138.577,75.173a5.776,5.776,0,1,1,5.776,5.777,5.778,5.778,0,0,1-5.776-5.777" transform="translate(-85.471 -42.802)" fill="#fff"/>
    <path id="Path_30115" data-name="Path 30115" d="M146.489,111.457v-5.526a6.685,6.685,0,0,0-6.685-6.685H129.679a6.683,6.683,0,0,0-6.685,6.684v5.527Z" transform="translate(-75.86 -61.213)" fill="none" stroke="#fff" stroke-miterlimit="10" stroke-width="0.75"/>
    <path id="Path_30116" data-name="Path 30116" d="M83.637,46.491a.63.63,0,0,1-.63.63H55.713a.63.63,0,1,1,0-1.26H83.007a.63.63,0,0,1,.63.63" transform="translate(-33.973 -28.286)" fill="#fff"/>
    <line id="Line_427" data-name="Line 427" x2="3.899" y2="20.07" transform="translate(23.632 18.376)" fill="none" stroke="#fff" stroke-miterlimit="10" stroke-width="0.75"/>
    <line id="Line_428" data-name="Line 428" x1="3.899" y2="20.07" transform="translate(42.784 18.376)" fill="none" stroke="#fff" stroke-miterlimit="10" stroke-width="0.75"/>
  </g>
</svg>
